<?xml version="1.0" encoding="utf-8"?>
<!-- Generator: Adobe Illustrator 16.0.0, SVG Export Plug-In . SVG Version: 6.00 Build 0)  -->
<!DOCTYPE svg PUBLIC "-//W3C//DTD SVG 1.1//EN" "http://www.w3.org/Graphics/SVG/1.1/DTD/svg11.dtd">
<svg version="1.1" id="Layer_1" xmlns="http://www.w3.org/2000/svg" xmlns:xlink="http://www.w3.org/1999/xlink" x="0px" y="0px"
	 width="154px" height="70px" viewBox="0 0 154 70" enable-background="new 0 0 154 70" xml:space="preserve">
<g>
	<g>
		<polygon fill="#F4970C" points="39.502,0.694 9.271,16.637 25.471,68.181 53.66,50.195 		"/>
	</g>
	<path fill="#4E2681" d="M61.81,49.881l0.5,0.203C62.196,50.036,61.994,49.933,61.81,49.881z M43.069,14.255
		c-0.002-0.011-0.002-0.021-0.004-0.026l-0.46,0.001c-0.006,0.009-0.012,0.019-0.018,0.027c0.179,0.036,0.243,0.109,0.243,0.109
		c-0.106,0.069-0.245,0.124-0.245,0.124C42.766,14.538,42.934,14.397,43.069,14.255z M39.502,6.192
		c0.003-0.025,0.005-0.05,0.005-0.069h-0.369c-0.057,0.044-0.101,0.1-0.09,0.193C39.215,6.334,39.338,6.212,39.502,6.192z
		 M40.868,55.977h-0.73c0.137,0.184-0.126,0.382-0.079,0.569C40.25,56.268,40.589,56.173,40.868,55.977z M45.259,3.743
		c0,0-0.227-0.286-0.264-0.465c-0.189,0.136-0.392,0.238-0.514,0.301C44.726,3.64,44.943,3.634,45.259,3.743z M54.834,48.288h0.423
		c-0.122-0.07-0.184-0.139-0.184-0.139l0.184-0.179l0.247,0.183c-0.08-0.162-0.211-0.532-0.211-0.532h-0.324
		C54.951,47.911,54.969,48.114,54.834,48.288z M56.396,51.879c-0.103-0.319-0.219-0.538-0.28-0.661
		C56.054,51.46,56.195,51.751,56.396,51.879z M61.755,50.068c-0.018,0.021-0.035,0.043-0.051,0.059h0.051V50.068z M51.557,36.379
		c0.016,0.04,0.028,0.081,0.028,0.145C51.585,36.435,51.574,36.395,51.557,36.379z M5.232,13.623
		c-0.188-0.022-0.705,0.217-0.942,0.601H4.288c-0.082,0.135-0.132,0.283-0.121,0.444c-0.056-0.108-0.039-0.186-0.054-0.439
		c0-0.011-0.002-0.02-0.002-0.027H3.643c0.009,0.008,0.017,0.017,0.023,0.027h0c0.482,0.582,0.109,1.532,1.075,1.532
		c0.305,0,0.707-0.13,1.035-0.364c0.086,0.103,0.086,0.228,0.19,0.303l-0.184,0.188c-0.08-0.106-0.136-0.244-0.136-0.244
		c-0.048,0.18-0.161,0.336-0.161,0.336c0.175,0.029,0.053,0.215,0.358,0.215c0.223,0,0.209-0.034,0.186-0.052
		c0.091,0.089,0.205,0.099,0.312,0.193v0.786h0.717c0.014-0.04,0.035-0.084,0.064-0.133C7.178,17.05,7.238,17.09,7.3,17.122h0.783
		c-0.006-0.072-0.006-0.158,0.003-0.25c0.08,0.057,0.119,0.153,0.151,0.25l0.459-0.001c-0.098-0.215-0.221-0.408-0.404-0.563
		c0.104-0.078,0.183-0.059,0.307-0.12c-0.124-0.062-0.256-0.185-0.256-0.185c-0.155,0.143-0.155,0.386-0.2,0.496V15.87
		c0.087,0.018-0.034,0.262,0.271,0.262c0.047,0,0.267-0.186,0.728-0.155l-0.239-0.26c0.329-0.079,0.597-0.339,0.807-0.568
		c0.208,0.12,0.359,0.248,0.604,0.187c-0.122-0.06-0.202-0.042-0.307-0.117c0.221-0.141,0.088-0.318,0.287-0.436
		c0.085,0.213,0.333,0.336,0.493,0.611c0.418-0.252,0.894-0.367,1.3-0.535c-0.139-0.178-0.521-0.067-0.734-0.144
		c0.104-0.071,0.245-0.115,0.215-0.287c-0.303,0.116-0.564,0.253-0.64,0.355l-0.31-0.315c0.044-0.082,0.111-0.165,0.19-0.239H9.883
		c0.098,0.069,0.227,0.121,0.438,0.074v0.337c0,0-0.069,0.021-0.374,0.021c-0.306,0-0.692,0.474-1.112,0.859
		c0,0-0.033-0.142-0.123-0.244c-0.207,0.115-0.35,0.365-0.35,0.365c-0.279-0.13-0.498,0-0.801-0.037
		c0.583-0.561,1.139-0.53,1.619-1.301c0.153-0.01,0.153,0.235,0.375,0.24c0.069-0.074,0.084-0.189,0.098-0.314
		c0.006-0.059,0.012-0.115,0.025-0.177c0.066,0.046,0.124,0.116,0.205,0.177l0.927-0.002c0.235-0.236,0.56-0.421,0.605-0.421
		c0.048,0,0.322,0.244,0.736,0.183c-0.122-0.06-0.186-0.133-0.186-0.133c0.106-0.069,0.41-0.055,0.41-0.055l0.204,0.184l-0.23,0.244
		l-0.015,0.016c0.28,0.168,0.385,0.153,0.575,0.291c0.04-0.18-0.102-0.224-0.208-0.299l0.007-0.008l0.178-0.179
		c0.063,0.084,0.157,0.102,0.292,0.179h0.002c0.03,0.017,0.061,0.035,0.095,0.062c0.003-0.021,0.006-0.038,0.006-0.062h0.002
		c0-0.154-0.12-0.292-0.214-0.362c0.104-0.081,0.104-0.205,0.184-0.308c0.079,0.103-0.184,0.246,0.122,0.246
		s0.306-0.246,0.613-0.246c0.045,0,0.208,0.333,1.031,0.582c-0.13-0.195-0.252-0.195-0.358-0.274l0.308-0.308
		c0.078,0.103,0.148,0.239,0.148,0.239c-0.123-0.417-0.673-0.591-0.7-0.539c0.062,0.054,0.125,0.124,0.125,0.124
		c-0.106,0.073-0.566,0.065-0.566,0.065v-0.421c0.589-0.522,0.089-0.081,0.747-0.081c0.384,0,0.354,0.503,0.9,0.353
		c0.261-0.667,0.466-0.193,0.645-0.376c-0.118,0.041-0.275-0.081-0.381-0.15c0.212-0.076,0.457-0.198,0.664-0.317
		c0.091,0.105,0.091,0.351,0.25,0.491l0.249-0.244l0.392,0.361c0.039-0.18-0.102-0.345-0.207-0.413
		c0.747-0.336,0.321-0.685,0.918-0.685c0.308,0,0.186,0.243,0.491,0.243c0.306,0,0.287-0.136,0.364-0.243l0.247,0.243
		c0.167-0.136,0.125-0.365,0.43-0.365c0.305,0,0.92-0.244,1.329-0.263c0.018-0.285,0.107-0.354,0.315-0.473
		c0.088,0.106,0.202,0.092,0.202,0.092c-0.008,0.217,0.13,0.417,0.087,0.534c0.142-0.169,0.333-0.381,0.637-0.381
		c0.306,0,0.263-0.017,0.452,0.12c0.039-0.178-0.102-0.226-0.205-0.304c0.103-0.079,0.225-0.079,0.306-0.183
		c0.079,0.104,0.185,0.044,0.185,0.044c-0.062-0.044-0.126-0.117-0.126-0.117c0.085-0.056,0.114-0.135,0.285-0.16l-0.138-0.001
		l0.14-0.001c0.038-0.006,0.085-0.01,0.142-0.01c0.077,0,0.126,0.004,0.159,0.012l0.329-0.002c0.201-0.104,0.117-0.167,0.252-0.377
		c0.075,0.104,0.24,0.121,0.415,0.093c-0.12-0.305-0.499-0.321-0.603-0.39c0.21-0.078,0.428-0.072,0.673-0.132
		c-0.123-0.062-0.078-0.289-0.184-0.368c0.106-0.08,0.228-0.08,0.308-0.184c0.078,0.104,0.324,0.104,0.428,0.184
		c-0.104,0.079-0.226,0.079-0.363,0.268c0.303,0.039,0.398,0.277,0.61,0.355c-0.107,0.067-0.247-0.008-0.247,0.295
		c0,0.133,0.023,0.208,0.053,0.258l0.205,0.002h-0.205c0.041,0.069,0.096,0.1,0.131,0.169c0.061-0.121,0.079-0.202,0.269-0.066
		c0.004-0.032,0.007-0.065,0.01-0.103h0c0.021-0.264-0.003-0.495-0.096-0.562c0.104-0.08,0.368,0.059,0.368-0.247
		c0-0.307-0.368-0.124-0.368-0.429c0-0.307-0.017-0.141,0.085-0.251c0.097,0.006,0.265-0.011,0.345-0.118
		c0.08,0.107,0.323,0.229,0.427,0.309C26.19,9.537,26.05,9.335,26.05,9.641c0,0.307,0.122,0.43,0.151,0.603
		c0.305-0.119,0.688-0.252,0.951-0.54c-0.14-0.166-0.263-0.166-0.369-0.236c0.212-0.077,0.364-0.474,0.461-0.7h1.09v0.521
		c-0.17-0.014-0.616,0.07-0.937,0.284c0.14,0.173,0.306,0.314,0.43,0.252c-0.125-0.062-0.185-0.131-0.185-0.131
		c0.105-0.07,0.227-0.07,0.307-0.174c0.08,0.104,0.137,0.24,0.137,0.24c0.046-0.18,0.028-0.26,0.108-0.363
		c0.079,0.104-0.184,0.245,0.122,0.245c0.305,0,0.753-0.493,1.161-0.656l-0.243-0.264c0.096-0.073,0.105-0.18,0.18-0.282h0
		c0.007-0.007,0.013-0.016,0.021-0.024c0.027,0.009,0.045,0.018,0.062,0.024l0.413-0.001c-0.257-0.267-0.604-0.393-0.92-0.579
		c0.104-0.073,0.368-0.301,0.368,0.006c0-0.105,0.075-0.184,0.183-0.184c0.153,0,0.177-0.025,0.681,0.334
		c-0.006,0.083,0.006,0.318,0.082,0.424l0.224,0.001L30.302,8.44c0.011,0.014,0.022,0.026,0.035,0.036
		c-0.103,0.079-0.245,0.138-0.245,0.138c0.184,0.044,0.264,0.027,0.441,0.169c0.052-0.108,0.128-0.228,0.217-0.343h0.001
		c0.213-0.274,0.499-0.519,0.705-0.53c-0.017,0.078-0.14,0.016-0.14,0.322c0,0.097,0.018,0.161,0.04,0.206h0.002
		c0.05,0.099,0.131,0.099,0.131,0.099c0.037-0.029,0.06-0.062,0.076-0.099c0.06-0.137-0.002-0.308,0.079-0.396
		c0.101,0.007,0.271,0.105,0.271,0.105l-0.231-0.284c0.105-0.079,0.25-0.215,0.417,0.062c0.177-0.141,0.254-0.245,0.562-0.245
		c0.307,0,0.307,0.245,0.612,0.245c0.308,0,0.473-0.141,0.727-0.462c-0.439,0.1-0.768-0.025-1.094-0.09
		c0.326-0.062,0.579-0.312,0.786-0.429c0.09,0.106-0.05,0.369,0.255,0.369c1.072,0,0.868-0.391,2.142-1.056
		c-0.181-0.047-0.245-0.117-0.245-0.117c0.011-0.006,0.022-0.014,0.031-0.019l-3.03,0.005c0.029,0.055,0.053,0.123,0.044,0.188
		c-0.41,0.018-0.886-0.105-1.429,0.006c-0.007-0.071-0.036-0.136-0.061-0.199h-0.001c-0.035-0.086-0.068-0.171-0.046-0.274
		c0.19,0.136,0.086,0.24,0.391,0.24c0.306,0,0.203-0.104,0.344-0.24c0.115-0.004,0.167,0.155,0.222,0.274l0.155,0.002
		c0.07-0.038,0.16-0.07,0.271-0.157c0,0,0.064,0.068,0.109,0.155l3.032-0.001c0.094-0.068,0.184-0.154,0.46-0.154
		c0.308,0,0.142-0.018,0.251,0.084c-0.002,0.022-0.009,0.048-0.022,0.071l0.595,0.001l-0.595,0.001
		c-0.037,0.07-0.122,0.147-0.226,0.28c0.276,0.168,0.63,0.523,0.856,0.725c-0.104,0.079-0.184,0.185-0.362,0.22
		c0.258,0.312,0.606,0.515,0.606,0.823c0,0.109,0.017,0.191,0.033,0.266h-0.001c0.029,0.133,0.055,0.242-0.021,0.438
		c0.297,0.028,0.376,0.013,0.479,0.09c-0.103,0.08-0.244-0.183-0.244,0.126c0,0.423,0.371,1.051,0.717,1.663l2.401-0.002
		c0.082-0.065,0.16-0.139,0.307-0.171c-0.136-0.189-0.165-0.329-0.165-0.329l-0.261,0.244c-0.078-0.104-0.203-0.104-0.312-0.205
		V9.613c0.218-0.101,0.356-0.114,0.493-0.311h-0.469c-0.018,0.155-0.09,0.216-0.09,0.216c-0.068-0.104-0.112-0.245-0.276-0.228
		c-0.018,0.288-0.201,0.471-0.302,0.477c-0.101-0.109-0.101-0.354-0.208-0.421c0.212-0.079,0.247-0.012,0.302,0.172
		c0.187-0.693,0.499-0.334,0.745-0.735l0.269,0.238c0,0-0.089-0.301-0.107-0.466c-0.29-0.019-0.472,0.349-0.778,0.349
		c-0.306,0-0.184-0.061-0.184-0.061c0.167-0.053,0.26-0.291,0.445-0.405h-0.002c0.048-0.03,0.102-0.054,0.166-0.061
		c-0.136-0.19-0.381-0.314-0.488-0.401c0.116-0.206,0.369-0.357,0.365-0.499l-0.286-0.283c-0.244,0.044-0.458-0.124-0.57-0.079
		c0.215-0.053,0.43-0.045,0.605-0.077c-0.121-0.302-0.236-0.521-0.297-0.643c-0.061,0.245-0.299,0.462-0.381,0.677
		c-0.103-0.1-0.535-0.692-0.535-0.8c0-0.052,0.002-0.101,0.008-0.147c0.026-0.208,0.11-0.317,0.171-0.403l0.309,0.307
		c-0.044,0.032-0.096,0.061-0.139,0.095l0.372-0.004c0.009-0.25,0.002-0.43,0.074-0.581c-0.165,0.08-0.306,0-0.308-0.106
		c0.068-0.106,1.089-0.813,1.226-0.813c0.308,0,0.141,0.105,0.246,0.185c-0.105,0.078-0.246,0.124-0.228,0.29
		c0.166,0.018,0.29-0.105,0.361-0.133c-0.132,0.314-0.238,0.29-0.373,0.479c0.177,0.038,0.301-0.083,0.475-0.099V4.817
		c0.01-0.304,0.342-0.57,0.55-0.688c0.089,0.104,0.133,0.243,0.312,0.208c-0.134-0.191-0.256-0.349-0.165-0.455
		c0.334,0.121,0.679,0.351,0.885,0.478l-0.225-0.289l0.279-0.273h-0.001l0.04-0.036c0.025,0.015,0.053,0.028,0.079,0.036h0.336
		h-0.335c0.195,0.082,0.437,0.082,0.701,0.049c-0.012-0.015-0.022-0.029-0.03-0.049h-0.001c-0.114-0.18-0.173-0.403-0.454-0.403
		c-0.306,0-0.142,0.141-0.244,0.062c0.269-0.199,0.072-0.553,0.619-0.706c-0.112,0.049-0.112,0.172-0.191,0.337
		c0.168-0.078,0.49-0.061,0.671-0.105c-0.276-0.193-0.367-0.385-0.37-0.483c0.11-0.103,0.555,0.036,0.735,0
		c-0.136-0.188-0.241-0.146-0.241-0.45c0-0.308,0.333-0.131,0.542-0.247c0.088,0.104,0.088,0.226,0.255,0.307
		c-0.079-0.165-0.079-0.288-0.185-0.359c0.211-0.077,0.552-0.316,0.854-0.352c-0.136-0.189-0.515,0.178-0.526-0.579l0.249,0.245
		c0.037-0.178,0.019-0.381,0.156-0.571h-0.481c0.136,0.19-0.023,0.349-0.225,0.22c0.104,0.322,0.227,0.569,0.345,0.766
		c-0.458,0.208-0.861,0.447-1.167,0.447c-0.308,0-0.201-0.104-0.332-0.205V1.193c-0.213,0.275-0.308,0.492-0.515,0.61
		c-0.09-0.104-0.255-0.124-0.377-0.062c0.244,0.062,0.447,0.286,0.554,0.391c-0.003,0.1-0.107,0.301-0.208,0.408L41.6,2.454
		c0.108-0.058,0.37-0.101,0.353-0.266c-0.41-0.018-0.471-0.14-0.779-0.14c-0.06,0-0.097,0.003-0.12,0.006
		c-0.003,0.198,0.184,0.309,0.188,0.396C41.13,2.556,40.993,2.61,40.993,2.61c0.18,0.052,0.382,0.033,0.488,0.113
		c-0.106,0.076-0.185,0.06-0.366,0.107c0.278,0.19,0.672,0.196,0.917,0.137c-0.122-0.062-0.202-0.045-0.306-0.12l0.202-0.191
		l0.658,0.085C42.478,2.8,42.339,2.85,42.339,2.85s0.385,0.038,0.487,0.112C42.36,3.318,41.91,3.151,41.374,3.17
		c0.046,0.57-0.061,0.469-0.387,0.508c0.108-0.056,0.249-0.099,0.249-0.406c0-0.304-0.227-0.226-0.363-0.034
		c0.179,0.034,0.24-0.21,0.24,0.097c0,0.305-0.244,0.113-0.244,0.113c0.141,0.175,0.133,0.222,0.133,0.222
		c-0.277-0.027-0.499,0.067-0.632,0.129h-0.002c-0.017,0.01-0.033,0.02-0.05,0.027c0.122,0.061,0.202,0.041,0.305,0.122
		c-0.104,0.078-0.104,0.322-0.183,0.426c-0.201-0.227-0.488-0.487-0.655-0.471c-0.017,0.335-0.82,0.628-1.021,0.729
		c0.055-0.654,0.488-0.575,0.754-0.828c-0.181-0.04-0.383,0.099-0.486,0.01c0.002-0.006,0.005-0.01,0.008-0.016h-0.001
		c0.115-0.204,0.234-0.443,0.31-0.646c0.192,0.225,0.479,0.612,0.769,0.594c0.016-0.411-0.123-0.49-0.023-0.611h0.397
		c-0.119-0.317-0.462-0.457-0.599-0.267c0.179,0.039,0.241-0.205,0.241,0.101c0,0.304-0.226,0.201-0.296,0.306
		c-0.078-0.212-0.472-0.24-0.775-0.359c-0.031,0.174-0.154,0.174-0.154,0.48c0,0.198-0.117,0.322-0.279,0.403h0.002
		c-0.217,0.107-0.508,0.127-0.709,0.119c0.023-0.037,0.038-0.073,0.044-0.119h0c0.03-0.18-0.074-0.398-0.159-0.464
		c0.105-0.079,0.369-0.246,0.358-0.399c-0.269-0.146-0.507-0.264-0.856-0.488c0.009-0.093-0.009-0.295,0.069-0.46
		c-0.166,0.081-0.183-0.122-0.201-0.287c-0.533-0.02-0.874-0.134-1.426-0.379v0.466c0.156,0.018,0.22,0.09,0.22,0.09
		c-0.107,0.067-0.244,0.125-0.244,0.125c0.18,0.048,0.469-0.095,0.549-0.197c0.081,0.103,0.061,0.174,0.061,0.174
		c-0.103,0.09-0.35,0.211-0.484,0.4c0.179,0.037,0.364-0.27,0.364,0.037c0,0.309,0.121,0.309,0.121,0.612
		c0,0.307-0.103,0.142-0.183,0.307c0.165-0.079,0.306,0,0.32,0.084l-0.422,0.104c-0.371-0.517-0.45-0.142-0.45-0.312
		c0-0.304-0.128-0.461-0.008-0.77h-0.463c-0.018,0.157-0.262,0.222-0.262,0.527c0,0.239,0.301,0.557,0.431,0.83h0.002
		c0.035,0.073,0.057,0.144,0.057,0.211c0,0.304,0.017,0.138-0.085,0.247c-0.467-0.004-0.405-0.004-0.711,0.057
		c0.245,0.061,0.463,0.056,0.672,0.124c-0.438,0.159-1.468,1.164-2.265,1.164c-0.306,0-0.184-0.066-0.184-0.066
		c0.341-0.188,0.693-0.307,1.101-0.472c-0.139-0.182-0.426-0.321-0.592-0.302c-0.017,0.166,0.125,0.208,0.229,0.274
		c-0.328,0.077-0.614,0.32-0.92,0.32c-0.306,0,0-0.245-0.306-0.245c-0.307,0,0.062,0.245-0.247,0.245
		c-0.306,0-0.306-0.245-0.471-0.227C31.561,5.294,31.5,5.477,31.4,5.479c-0.101-0.106-0.434-0.229-0.574-0.064
		c0.14,0.165,0.308,0.186,0,0.186c-0.307,0-0.307-0.124-0.487-0.079c0.511,0.341,0.028-0.052,0.703,0.602
		c0.009,0.008,0.019,0.019,0.028,0.027c-0.104,0.081-0.184,0.062-0.273,0.069c-0.085-0.191-0.454,0.031-0.558-0.097h0.002
		c-0.02-0.022-0.028-0.052-0.028-0.095c0,0.036-0.014,0.065-0.035,0.094c-0.068,0.07-0.215,0.09-0.333,0.09
		c-0.306,0-0.263,0.02-0.371-0.079v-0.01V5.808c0.107-0.103,0.188-0.086,0.25-0.138c-0.244,0.042-0.377,0.259-0.546,0.452h-0.001
		c-0.056,0.062-0.116,0.123-0.186,0.173c0.224-0.018,0.236,0.123,0.37,0.217c-0.219-0.057-0.477-0.082-0.686-0.178l-0.231,0.245
		c-0.043-0.089-0.022-0.174-0.004-0.253c-0.024,0.004-0.059,0.008-0.124,0.008c-0.306,0-0.29-0.103-0.428,0.075
		c0.454,0.182,0.489,0.415,0.489,0.415c0,0.306-0.229,0.263-0.302,0.366l-0.188-0.182c0.105-0.08,0.228-0.08,0.359-0.278
		c-0.802,0.157-0.644-0.1-0.801-0.15c-0.245,0.231-0.462,0.244-0.653,0.277l0.239,0.28c-0.164,0.224-0.399-0.11-0.471-0.232
		C26.531,6.97,26.428,7.07,26.234,7.07c-0.153,0-0.303-0.161-0.485-0.37c-0.171,0.14-0.067,0.43-0.049,0.595
		c0.166,0.02,0.245,0,0.351,0.073c-0.34,0.202-0.717,0.331-0.919,0.558c-0.079-0.104-0.061-0.184-0.067-0.28
		c0.11-0.105,0.248-0.163,0.248-0.163c-0.303-0.047-0.504-0.15-0.693-0.287c-0.039,0.179-0.223,0.24-0.377,0.257v0.47
		c0.198-0.137,0.216-0.058,0.232,0.024L23.901,8.05c-0.116,0-0.405,0.138-0.485,0.243c-0.079-0.105-0.185-0.08-0.306-0.415
		c0.105-0.093,0.244-0.149,0.244-0.149c-0.181-0.048-0.383,0.093-0.574-0.043c-0.035,0.303,0.088,0.547,0.115,0.723
		c0.267-0.106,0.435-0.036,0.543,0.03h1.325l-0.303-0.094c0.181-0.052,0.398-0.166,0.706-0.288c0.021,0.143-0.054,0.248-0.095,0.378
		h-0.001c-0.01,0.03-0.017,0.06-0.023,0.091l-0.283-0.087L23.438,8.44c0.014,0.008,0.027,0.019,0.043,0.026
		c-0.212,0.078-0.492,0.316-0.797,0.316c-0.307,0-0.369-0.125-0.438-0.095c0.057-0.083,0.051-0.174,0.012-0.25h-0.001
		c-0.045-0.081-0.132-0.143-0.211-0.142c-0.048,0.05-0.08,0.094-0.104,0.141h-0.002c-0.045,0.081-0.064,0.157-0.12,0.221
		c-0.328-0.232-0.701-0.113-0.913-0.191c0.011-0.007,0.021-0.017,0.027-0.026h0.002c0.044-0.064-0.067-0.139-0.212-0.208
		c0.08,0.165-0.122,0.185-0.289,0.202c0,0.003,0,0.004,0,0.004l0.354,0.001l-0.354,0.004c-0.013,0.162,0.125,0.323,0.228,0.4
		c-0.103,0.081-0.414,0.062-0.414,0.062c-0.093-0.104-0.137-0.248-0.312-0.218c0.121,0.305,0.488,0.428,0.605,0.633l-0.189,0.197
		c-0.54-0.478-1.314-0.275-1.764-0.335c0.254,0.315,0.499,0.315,0.607,0.376l-0.528,0.087c-0.094-0.216-0.35-0.479-0.541-0.612
		c-0.038,0.301,0.103,0.588,0.208,0.669c-0.106,0.078-0.123,0.183-0.43,0.183c-0.305,0-0.185-0.048-0.185-0.048
		c0.062,0.048,0.124-0.259,0.078-0.441c-0.193,0.278-0.302,0.506-0.406,0.616c-0.098-0.006-0.037-0.251-0.342-0.251
		c-0.308,0-0.307,0.177-0.307,0.177c0.139,0.176,0.384,0.053,0.489,0.132c-0.104,0.077-0.308,0.183-0.404,0.187
		c-0.227-0.231-0.471-0.354-0.675-0.489v0.448c0.255,0.281-0.375,0.16-0.494,0.175v0.364h0.002v0.091
		c0.162,0.019,0.226,0.089,0.226,0.089c-0.107,0.07-0.186,0.175-0.491,0.175c-0.306,0,0.122-0.245-0.183-0.245
		c-0.308,0,0.183,0.245-0.123,0.245c-0.243,0-0.424-0.118-0.43-0.354l-0.22,0.002c-0.042,0.063-0.109,0.082-0.22-0.002l-0.003,0.001
		c-0.003-0.003-0.006-0.006-0.009-0.007c0,0.002-0.002,0.004-0.002,0.006l0.007,0.002h-0.007c-0.03,0.171,0.108,0.215,0.21,0.293
		c-0.103,0.079-0.488,0.06-0.488,0.368c0,0.104-0.078,0.062-0.186,0.062c-0.307,0-0.202,0.018-0.307-0.062
		c0.105-0.08,0-0.368-0.036-0.545c-0.189,0.132-0.189,0.376-0.268,0.481c-0.08-0.105,0-0.245-0.305-0.245
		c-0.309,0-0.309,0.37-0.614,0.37c-0.305,0-0.305-0.125-0.473-0.107c-0.016,0.167-0.088,0.229-0.088,0.229
		c-0.069-0.104-0.112-0.246-0.112-0.246c-0.206,0.307-0.241,0.33-0.565,0.492c-0.17-0.002-0.09,0.104,0.014,0.182
		c-0.104,0.079-0.228,0.079-0.305,0.182c-0.08-0.103-0.126-0.243-0.126-0.243c-0.116,0.192-0.121,0.369-0.43,0.404
		c0.108-0.053,0.108-0.176,0.188-0.343c-0.165,0.079,0,0.182-0.307,0.182c-0.305,0-0.06-0.243-0.366-0.243
		c-0.308,0-0.351,0.141-0.489,0.321c0.534,0.168,1.021,0.288,1.347,0.369c-0.106,0.062-0.106,0.186-0.198,0.292l-0.43-0.101
		c0.013-0.084,0.076-0.267-0.23-0.267c-0.308,0-0.735,0.244-1.042,0.244c-0.307,0-0.448-0.106-0.612-0.187
		c0.079,0.167,0.079,0.448,0,0.551c-0.08-0.103-0.123-0.243-0.287-0.226c-0.019,0.289-0.019,0.349-0.325,0.349
		c-0.308,0-0.325-0.104-0.516-0.238c-0.037,0.179-0.097,0.238-0.097,0.238c-0.068-0.209-0.08-0.384,0.056-0.571
		c-0.301-0.039-0.573,0.21-0.753,0.339v-0.52c0.083,0.021,0.27-0.042,0.25-0.209c-0.288-0.017-0.472-0.078-0.476-0.178
		c0.108-0.101,0.249-0.023,0.237-0.185c-0.709-0.174-0.43-0.475-0.755-0.7v-0.181l0.418,0.35c-0.159-0.33-0.419-0.586-0.631-0.664
		c0.015-0.011,0.035-0.023,0.055-0.038h0.004c0.12-0.069,0.304-0.171,0.371-0.26c0.08,0.104,0.323,0.104,0.514,0.242
		c0.037-0.18-0.225-0.223-0.331-0.303c0.105-0.079,0.105-0.289,0.105-0.289c-0.317,0.11-0.411,0.35-0.628,0.356l-0.212-0.188
		c0.105-0.079,0.247-0.245,0.229-0.413C5.046,9.886,4.986,9.835,4.986,9.835l0.655-0.076c0.098,0.109,0.141,0.248,0.295,0.239
		c0.146-0.27,0.336-0.357,0.459-0.419C6.272,9.519,6.335,9.641,6.026,9.641c-0.306,0-0.191-0.094-0.191-0.094
		c0.008-0.089,0.069-0.151,0.253-0.209L5.66,9.273c-0.244,0-0.518,0.252-0.725,0.367c-0.09-0.104,0.233-0.245-0.072-0.245
		c-0.031,0-0.064,0.109-0.367-0.173c0.21-0.079,0.334-0.079,0.612-0.262c-0.394-0.168-0.522-0.4-0.905-0.522L4.197,8.439
		C4.183,8.436,4.169,8.433,4.155,8.429c-0.002,0.004-0.002,0.009-0.002,0.01l0.025,0.001L4.151,8.44
		C4.124,8.605,4.005,8.729,4.005,9.03c0,0.305,0.279,0.604,0.491,0.673c-0.212,0.067-0.491,0.12-0.491,0.428
		c0,0.205,0.17,0.414,0.277,0.624h0.002c0.052,0.098,0.09,0.195,0.09,0.295c0,0.305-0.114,0.274-0.114,0.274
		c0.175,0.03,0.236,0.103,0.236,0.103c-0.105,0.07-0.244,0.128-0.244,0.128c0.183,0.046,0.385-0.096,0.489-0.016
		c-0.104,0.079-0.098,0.294-0.098,0.294c0.203-0.13,0.22-0.109,0.22,0.195c0,0.308-0.21,0.56-0.489,0.742
		c0.535,0.175,0.794,0.543,1.243,0.527c-0.019,0.43,0.226,0.508,0.23,0.789c-0.108,0.104-0.23-0.021-0.31,0.083
		c-0.08-0.104-0.136-0.24-0.136-0.24c-0.027,0.101,0.003,0.206,0.02,0.299c0.012,0.076,0.017,0.145-0.03,0.192
		c-0.101-0.003-0.177,0.015-0.284-0.065c0.063-0.047,0.008-0.059-0.047-0.127c-0.038-0.045-0.075-0.115-0.075-0.24
		C4.986,13.683,5.168,13.683,5.232,13.623z M30.816,6.675c-0.058,0.008-0.114,0.027-0.169,0.042
		C30.729,6.661,30.793,6.601,30.816,6.675z M26.24,8.438c0.051-0.163,0.146-0.304,0.263-0.386c0.017,0.136-0.002,0.266-0.044,0.386
		h0c-0.054,0.146-0.143,0.267-0.247,0.342c-0.016-0.121-0.004-0.237,0.031-0.341h-0.313L26.24,8.438z M22.194,10.755l0.305-0.31
		c0,0-0.062-0.069-0.242-0.115c0,0,0.153-0.193,0.426-0.26c0,0-0.08,0.044-0.186,0.112c0.212,0.075,0.456,0.199,0.736,0.383
		c-0.164,0.073-0.264,0.098-0.358,0.188h-0.003c-0.053,0.052-0.104,0.121-0.165,0.23l-0.575-0.165L22.194,10.755z M3.15,16.315
		c0,0.305,0.263,0.164,0.366,0.245c-0.103,0.078-0.244,0.368-0.219,0.539c0.376-0.099,0.568-0.421,0.77-0.419
		c-0.346-0.178-0.462-0.298-0.674-0.375c0.106-0.069,0.186-0.053,0.308-0.114c-0.246-0.06-0.517-0.178-0.795,0.016
		C3.089,16.253,3.15,16.009,3.15,16.315z M54.277,52.196c0.063-0.123,0.063-0.183,0.37-0.183c0.305,0,0.324,0.103,0.525,0.235
		c-0.104-0.321-0.36-0.462-0.535-0.601C54.468,51.928,54.216,51.954,54.277,52.196z M1.065,16.324l0.225-0.302
		c-0.327,0.25-0.406,0.23-0.589,0.275c0,0,0.408,0.443,0.853,0.53C1.278,16.628,1.182,16.533,1.065,16.324z M18.175,43.555
		l0.647-0.158c-0.155-0.184-0.257-0.336-0.647-0.431V43.555z M5.305,16.376c-0.167,0.085-0.303,0.246-0.69,0.284
		c0.107-0.058-0.344-0.144-0.344-0.144c0.109,0.316,0.366,0.454,0.474,0.558c-0.003,0.099,0.362-0.086,0.671-0.086
		c0.305,0,0.462,0.117,0.784,0.221C5.946,16.884,5.588,16.771,5.305,16.376z M3.823,17.233c-0.307,0-0.519,0.252-0.716,0.371
		c-0.087-0.216-0.087-0.459-0.204-0.668c0.105-0.089,0.245-0.146,0.245-0.146C2.552,16.743,2.17,17.11,1.984,17.11
		c-0.306,0-0.185-0.081-0.185-0.081c0.119-0.196,0.371-0.224,0.352-0.391c-0.167-0.017-0.35-0.078-0.436-0.2v0.771
		c0.374,0.144,0.943,0.637,1.249,0.637c0.415,0,1.192-0.677,1.283-0.82C4.066,16.988,4.128,17.233,3.823,17.233z M23.352,56.631
		c0.004-0.149-0.169-0.332-0.169-0.332c-0.175,0.143-0.334,0.02-0.523-0.115c-0.039,0.181-0.222-0.068-0.222,0.239
		c0-0.308,0.224-0.004,0.224-0.004l0.21,0.212c-0.003,0.098-0.103,0.269-0.103,0.269C22.971,56.771,23.215,56.771,23.352,56.631z
		 M7.584,22.366c0.158,0.012,0.201-0.251,0.34-0.433c-0.408-0.167-0.531-0.533-0.966-0.635C7.201,21.735,7.439,21.968,7.584,22.366z
		 M24.579,60.29c-0.256-0.355-0.138-0.541-0.329-0.682C24.212,59.713,24.32,60.474,24.579,60.29z M21.651,52.53
		c0,0-0.29-0.143-0.611-0.246C21.292,52.606,21.538,52.488,21.651,52.53z M65.301,49.75c-0.122-0.063-0.184-0.124-0.203-0.275
		h-0.469C64.904,49.681,65.179,49.81,65.301,49.75z M59.484,50.48c0,0.308-0.104,0.411,0.03,0.546v-0.962
		C59.013,50.131,59.484,50.453,59.484,50.48z M23.48,10.814c-0.107,0.07-0.241,0.135-0.241,0.135
		c0.283-0.087,0.444-0.145,0.542-0.194h-0.329C23.546,10.771,23.48,10.814,23.48,10.814z M45.486,20.655
		c-0.067-0.219-0.128-0.432-0.189-0.636l-2.476,0.005c0.006,0.024,0.006,0.072,0.006,0.147c0,0.307-0.244-0.123-0.244,0.187
		c0,0.304,0.244,0,0.244,0.304c0,0.308-0.122,0.185-0.103,0.349c0.287,0.021,0.409,0.265,0.588,0.226
		c-0.134-0.188,0.068-0.328,0.165-0.333c0.105,0.107,0.227,0.107,0.331,0.176c-0.212,0.078-0.238,0.351-0.347,0.671l0.285-0.229
		c0.08,0.105,0.277,0.112,0.277,0.112c0.028-0.173,0.1-0.237,0.1-0.237c0.07,0.107,0.052,0.186,0.063,0.271
		c-0.337,0.1-0.714,0.226-0.99,0.417c0.183,0.048,0.26,0.067,0.183,0.232c0.166-0.08,0.06-0.185,0.366-0.185
		c0.306,0,0.188,0.082,0.188,0.082c-0.12,0.198-0.108,0.425-0.188,0.594c0.166-0.081,0.184,0,0.184,0.303
		c0,0.307-0.122,0.43-0.104,0.595c0.287,0.02,0.505,0.259,0.716,0.336c-0.105,0.069-0.307,0.052-0.488,0.104
		c0.314,0.12,0.458,0.299,0.515,0.507h0.001c0.074,0.27-0.01,0.586-0.071,0.864c0.431,0.396,1.022,0.964,1.022,1.271
		c0,0.306-0.244-0.062-0.244,0.243c0,0.307,0.366,0.369,0.366,0.673c0,0.308-0.245-0.184-0.245,0.125
		c0,0.306,0.245-0.125,0.245,0.183c0,0.093-0.072,0.168,0.373,0.576c-0.003,0.097-0.251,0.097-0.251,0.402
		c0,0.104,0.07,0.199,0.162,0.293l0.461,0.003c-0.054-0.22-0.119-0.411-0.071-0.602c0.062,0.121,0.167,0.202,0.307,0.354
		l-0.109,0.248h1.363c-0.087-0.174-0.152-0.312-0.152-0.354c0-0.309,0.123-0.248,0.117-0.396c-0.599-0.449-0.414-0.892-0.974-1.324
		c0.106-0.075,0.229-0.075,0.307-0.181c0.08,0.105-0.182,0.244,0.122,0.244c0.306,0,0.325-0.017,0.49,0.062
		c-0.08-0.165,0.044-0.324,0.181-0.511h-0.482c0.136,0.187,0.136,0.225,0.062,0.328c-0.199-0.34-0.462-0.603-0.802-0.804
		c0.107-0.073,0.183-0.055,0.368-0.103c-0.278-0.191-0.612,0.048-0.612-0.258s-0.018-0.289-0.127-0.348l0.408-0.086
		c0.094,0.214,0.271,0.494,0.558,0.479c0.019-0.166,0.14-0.107,0.14-0.413s-0.244-0.131-0.244-0.131l0.24-0.26
		c-0.302-0.037-0.641-0.153-0.853-0.232c0.106-0.066,0.369,0.134,0.369-0.173c0-0.056-0.043-0.056-0.025-0.172l-1.142-0.003
		c-0.049,0.03-0.104,0.048-0.153,0.044c-0.007-0.014-0.013-0.029-0.02-0.041c-0.101-0.244,0.112-0.401,0.139-0.794
		c0,0,0.201,0.006,0.25,0.117c-0.076-0.1-0.408,0.362-0.031,0.54c0,0-0.084,0.083-0.184,0.134l1.14,0.003
		c0.012-0.072,0.049-0.195,0.135-0.41c-0.172-0.031-0.375-0.014-0.479-0.09c0.104-0.081,0.244-0.245,0.232-0.403
		c-0.396-0.146-0.889-0.146-1.225-0.245c0.012-0.212-0.006-0.499-0.112-0.571l0.208-0.194c0.223,0.006,0.466,0.127,0.646,0.089
		c-0.26-0.313-0.363-0.636-0.424-0.879c-0.061,0.243,0.079,0.445-0.019,0.553l-0.662-0.091c0.121-0.191,0.366-0.068,0.486-0.373
		c-0.173-0.03-0.297-0.151-0.463-0.133c-0.018,0.164-0.14,0.226-0.14,0.226c-0.134-0.22,0.105-0.385,0.184-0.488
		c0.079,0.104,0.201-0.018,0.317,0.023c-0.166-0.139-0.256-0.332-0.273-0.41c0.202,0.019,0.202,0.139,0.382,0.103
		c-0.459-0.511-0.294-0.513-0.609-0.755l0.184-0.185C45.417,20.522,45.486,20.655,45.486,20.655z M47.273,1.798
		c0.189-0.135,0.269,0.004,0.451-0.043c-0.276-0.192-0.261-0.425-0.365-0.504c0.518-0.509,0.78-0.587,0.694-1.159
		c-0.187,0.137-0.144,0.363-0.234,0.373c-0.099-0.221-0.399-0.497-0.578-0.462c0.135,0.189,0.056,0.21-0.066,0.268
		c0.245,0.062,0.434,0.15,0.55,0.365C47.492,0.974,47.121,1.223,47,1.528C47.175,1.556,47.237,1.619,47.273,1.798z M42.645,20.111
		c0.06-0.027,0.104-0.071,0.13-0.092h-0.085C42.673,20.051,42.659,20.084,42.645,20.111z M6.454,11.654
		c0.187,0.005,0.198,0.166,0.451,0.434c0.04-0.183,0.023-0.262,0.163-0.427c-0.14-0.166-0.427-0.307-0.607-0.269
		C6.597,11.582,6.518,11.601,6.454,11.654z M44.315,55.305c0.165,0.017,0.331-0.247,0.467-0.436c-0.18-0.039-0.24-0.102-0.302-0.221
		c-0.061,0.119,0,0.182-0.245,0.241C44.358,54.954,44.297,55.136,44.315,55.305z M53.04,44.792c-0.046,0.302,0.094,0.594,0.38,0.792
		C53.219,45.298,53.231,45.066,53.04,44.792z M49.257,36.584c-0.08-0.104-0.244-0.242-0.427-0.199
		c0.276,0.194,0.385,0.424,0.517,0.561v-0.612C49.338,36.444,49.338,36.48,49.257,36.584z M46.511,29.285l-0.084,0.193
		c-0.01-0.066-0.024-0.131-0.039-0.191l-0.461-0.002c0.182,0.182,0.453,0.359,0.453,0.562c0,0.307-0.018,0.139-0.222,0.012
		c0.107,0.281,0.414,0.374,0.099,0.528c0.138,0.176,0.368,0.255,0.368-0.051c0-0.139-0.312-0.062,0.293-0.612
		c0.08,0.21,0.08,0.455,0.249,0.736c0.175-0.142,0.334-0.142,0.439-0.049c-0.122,0.334-0.213,0.668-0.398,0.791
		c-0.001-0.96-0.266-0.457-0.384-0.74c-0.181,0.138-0.198,0.303-0.181,0.47c0.165,0.018,0.227-0.229,0.227,0.079
		c0,0.307-0.112,0.276-0.112,0.276c0.295,0.03,0.375,0.01,0.563,0.147c0.039-0.179,0.144-0.259,0.215-0.362
		c0.078,0.156,0.086,0.14,0.008,0.304c0.164-0.079,0.182-0.182,0.182,0.124s-0.094,0.194-0.094,0.194
		c-0.088-0.011-0.168,0.007-0.371-0.121c0.104,0.32,0.361,0.461,0.567,0.585l-0.224-0.293c0.103-0.076,0.172-0.062,0.172-0.062
		c0.211,0.23,0.211,0.474,0.355,0.612c0.145,0.003,0.224-0.139,0.329-0.049c-0.237,0.452-0.487,0.831-0.596,1.378
		c0,0,0.324,0.01,0.462-0.103c0.14,0.212-0.091,0.016-0.11,0.273c-0.002,0.009-0.002,0.021-0.002,0.034
		c0,0.306,0.247-0.185,0.247,0.123c0,0.303-0.369,0.364-0.35,0.656c0.166,0.014,0.29-0.229,0.387-0.232
		c0.225,0.232,0.349,0.475,0.453,0.554c-0.104,0.08-0.368,0.123-0.33,0.301c0.189-0.135,0.33-0.236,0.33,0.068
		c0,0.303,0.019,0.534,0.16,0.665c0.392,0.008,0.47-0.131,0.576-0.036c-0.123,0.458-0.106,0.919-0.368,1.217
		c0.276,0.169,0.382,0.399,0.489,0.479c-0.106,0.08-0.262,0.08-0.453-0.055c-0.039,0.178,0.086,0.424,0.103,0.588
		c0.166,0.021,0.105-0.286,0.076-0.358c0.569,0.295,0.255-0.18,0.571-0.358c0.21,0.228,0.456,0.351,0.56,0.431
		c-0.104,0.079-0.228,0.079-0.308,0.184c-0.079-0.104-0.292-0.096-0.292-0.096c0.128,0.198,0.048,0.219-0.116,0.239
		c-0.005,0.066-0.009,0.144-0.009,0.229h0.001c0,0.285,0.035,0.637,0.163,0.849c0.175-0.135,0.254-0.121,0.378-0.181
		c-0.124-0.059-0.184,0.123-0.184-0.187c0-0.308,0.227-0.259,0.296-0.367c0.077,0.212,0.193,0.249,0.193,0.554
		c0,0.307-0.366,0.307-0.366,0.609c0,0.305,0.141,0.414,0.306,0.494c-0.08-0.169-0.08-0.203,0-0.306
		c0.079,0.103,0.245,0,0.423-0.041c-0.136-0.187-0.363-0.39-0.376-0.469l0.427-0.107c0.094,0.107,0.078,0.063,0.078,0.368
		c0,0.309-0.089,0.375-0.368,0.543c0.14,0.173,0.228,0.055,0.292-0.052c0.077,0.326-0.039,0.708,0.2,1.025
		c-0.214,0.084-0.432-0.044-0.739,0.008c0.41,0.188,0.797,0.192,1.122,0.174c-0.019,0.082-0.124,0.28-0.247,0.488
		c0,0,0.344-0.138,0.412-0.348c0.066,0.21,0.313,0.334,0.43,0.536c-0.406,0.287-0.37-0.11-0.37,0.383
		c0,0.223,0.137,0.465,0.255,0.656l0.321,0.005c0.026-0.103,0.058-0.224,0.074-0.352c0.188,0.138,0.312,0.138,0.442,0.339
		c0,0-0.215,0.008-0.296-0.1c-0.022,0.032-0.046,0.068-0.07,0.107c-0.064,0.104-0.131,0.234-0.173,0.323
		c-0.036-0.071-0.011-0.179,0.023-0.318l-0.321-0.005c0.042,0.072,0.083,0.136,0.114,0.191c-0.104,0.088-0.244,0.132-0.229,0.299
		c0.167,0.016,0.492-0.123,0.599-0.025c-0.004,0.105-0.065,0.164-0.187,0.225c0.122,0.062,0.202,0.043,0.304,0.123
		c-0.103,0.079-0.242,0.136-0.242,0.136c0.182,0.048,0.261-0.092,0.372,0.012c-0.006,0.095-0.068,0.159-0.252,0.218
		c0.776,0.107,0.936,1.343,1.563,1.647c0.03-0.174,0.186-0.239,0.186-0.239v0.184c-0.139,0.203-0.155,0.617-0.133,0.812
		l-0.188-0.032c0.024-0.028,0.042-0.073,0.042-0.162c0-0.311-0.123-0.247-0.159-0.427c-0.189,0.136-0.336,0.085-0.221-0.229
		c-0.296,0.059-0.388,0.152-0.72,0.152c0.485,0.209,0.61,0.722,0.781,0.93c0.287-0.128,0.505-0.124,0.798-0.148
		c-0.068-0.342,0.058-0.641,0.198-0.829c0.077,0.102,0.077,0.225,0.279,0.353c-0.104-0.317,0.13-0.457-0.012-0.597
		c-0.146-0.005-0.312,0.14-0.381,0.244c-0.077-0.213,0.113-0.368,0.235-0.431c-0.122-0.061-0.184,0.123-0.184-0.184
		s0.122-0.184,0.075-0.365c-0.191,0.277-0.191,0.521-0.292,0.74c-0.089-0.01-0.16-0.1-0.16-0.1c0.01-0.092,0.114-0.261-0.075-0.39
		c-0.037,0.177-0.108,0.237-0.108,0.237c-0.07-0.108-0.053-0.186-0.057-0.281c0.11-0.105,0.189-0.088,0.312-0.148
		c-0.123-0.059-0.325-0.166-0.431-0.241c0.106-0.081,0.369-0.248,0.355-0.408c-0.371-0.098-0.704-0.29-0.76-0.631
		c-0.187,0.135-0.314,0.241-0.314,0.241c-0.173-0.439,0.108-0.493,0.062-0.739c0.053,0.215,0.326,0.365,0.644,0.471
		c-0.124-0.191-0.261-0.399-0.388-0.602h-0.001c-0.248-0.395-0.455-0.765-0.455-0.966c0-0.308,0.238-0.28,0.364-0.57
		c-0.274-0.16-0.425-0.289-0.626-0.271c0.018-0.077,0-0.159,0.136-0.344c-0.302-0.041-0.504,0.099-0.613,0
		c0.006-0.104,0.067-0.164,0.188-0.225c-0.122-0.062-0.202-0.042-0.305-0.119l0.305-0.31c0.08,0.102,0.325,0.143,0.269,0.25
		c0.038-0.278-0.203-0.601-0.321-0.588c0.132,0.198,0.052,0.338-0.252,0.338c-0.308,0-0.498-0.213-0.624-0.399
		c0.316,0.034,0.604-0.229,0.868-0.518l-0.284-0.303c0,0-0.362,0.126-0.575,0.046c0.104-0.069,0.184-0.176,0.474-0.191
		c0.015-0.169-0.124-0.243,0-0.367c0.024-0.026,0.037-0.06,0.044-0.099c0.025-0.152-0.075-0.382-0.188-0.489
		c-0.267-0.005-0.635-0.005-0.824,0.032c0.233-0.18,0.488-0.319,0.568-0.53c0.069,0.104,0.111,0.368,0.285,0.339
		c-0.271-0.608-0.697-1.007-0.969-1.249l0.208-0.195c0.069,0.003,0.151-0.117,0.193-0.077c-0.058-0.151-0.209-0.161-0.34-0.226
		c0.079,0.167,0.245,0.184-0.061,0.184c-0.306,0-0.532-0.485-0.858-0.554c0.211-0.063,0.369-0.362,0.358-0.518
		c-0.268-0.146-0.376-0.257-0.48-0.334c0.104-0.078,0.244,0.185,0.244-0.124c0-0.306-0.244,0.06-0.244-0.245
		c0-0.306,0.018-0.203,0.134-0.157c-0.163-0.14-0.367-0.207-0.378-0.488c0-0.01,0-0.02,0-0.027c0-0.308,0.104-0.265,0.206-0.386
		h0.396c-0.12-0.316-0.486-0.561-0.659-0.841l-0.242,0.369c-0.077-0.212-0.439-0.428-0.439-0.735c0-0.304,0.248,0,0.248-0.304
		c0-0.309-0.125-0.371-0.186-0.492c-0.062,0.121,0.123,0.184-0.183,0.184c-0.322,0-0.051-0.167-0.367-0.43
		c0.104-0.078,0.245,0.122,0.245-0.182c0-0.308-0.123-0.308-0.141-0.473c-0.287-0.02-0.473,0.104-0.473-0.202
		c0-0.208-0.278-0.744-0.46-1.111L46.511,29.285z M50.972,52.81c0.002,0.274-0.185,0.298-0.415,0.651
		C50.939,53.306,51.092,53.057,50.972,52.81z M45.534,54.317c0.322-0.104,0.54,0.024,0.721-0.023
		C45.978,54.103,45.662,54.114,45.534,54.317z M41.017,2.062c0-0.001,0.01-0.005,0.036-0.007c0-0.023-0.008-0.042-0.001-0.068
		C41.088,2.058,41.017,2.067,41.017,2.062z M39.036,11.639c-0.108,0.103-0.249,0.157-0.249,0.157
		c0.184,0.049,0.122-0.195,0.428-0.195c0.306,0,0.325,0.103,0.431,0.193c-0.116,0.208-0.334,0.18-0.614,0.35
		c0.14,0.175,0.14,0.296,0.284,0.432c0.145,0.007,0.312-0.136,0.37-0.243c-0.01,0.223-0.025,0.674,0.327,1.043
		c-0.106,0.082-0.245,0.246-0.208,0.426c0.191-0.139,0.226-0.015,0.331,0.061l-0.246,0.244c0.027,0.042,0.056,0.083,0.08,0.123
		h0.001c0.861,1.309,0.825,1.317,1.633,2.692c-0.104,0.084-0.243,0.143-0.243,0.143c0.131,0.034,0.208,0.034,0.279,0.059
		l1.066,0.003h-1.063c0.028,0.01,0.055,0.025,0.083,0.048c-0.104,0.078-0.245-0.064-0.245,0.245c0,0.305,0.141,0.533,0.25,0.636
		c-0.006,0.099,0.381,0.265,0.608,0.466c-0.105,0.079-0.245,0-0.245,0.307s0.123,0.43,0.184,0.551
		c0.062-0.121-0.184-0.184,0.123-0.184c0.305,0,0.08,0.227,0.182,0.307c-0.103,0.077-0.241,0.137-0.241,0.137
		c0.181,0.048,0.347-0.096,0.422-0.198l0.186,0.184c-0.084,0.065-0.182,0.241-0.261,0.397l0.089-0.005
		c0.026-0.024,0.041-0.03,0.047,0.005h2.472c-0.135-0.44-0.281-0.841-0.556-1.191c-0.285,0.125-0.382,0.365-0.473,0.373
		c-0.097-0.22,0.091-0.375,0.213-0.438c-0.123-0.061-0.183-0.128-0.183-0.128l0.245-0.241c-0.286-0.245-0.845-0.323-0.992-0.697
		c0.196,0.025,0.414-0.104,0.661-0.003v0.334c0.086-0.244,0.086-0.488,0.068-0.777c-0.164-0.018-0.332,0.125-0.401,0.229
		c-0.048-0.138,0.038-0.224,0.104-0.352h0.002c0.037-0.07,0.067-0.151,0.067-0.264c0-0.304-0.244,0.125-0.244-0.184
		c0-0.305,0.244,0.184,0.244-0.12c0-0.308-0.615-0.39-0.745-0.698c0.195,0.025,0.195,0.146,0.371,0.117
		c-0.243-0.547-0.485-1.031-0.672-1.441c-0.101,0.423-0.428,0.475-0.491,0.614c-0.292-0.295-0.275-0.649-0.377-0.924h-0.002
		c-0.034-0.093-0.083-0.175-0.165-0.244c0.106-0.076,0.106-0.198,0.204-0.305h0.326c0.102,0.106,0.225,0.106,0.328,0.188
		c-0.1,0.075-0.103,0.19-0.222,0.361l0.46-0.002c-0.146-1.043-1.019-1.092-1.34-1.46c0.105-0.082,0.227-0.327,0.366-0.484
		c-0.129-0.28-0.383-0.296-0.55-0.377c0.079,0.169,0,0.185-0.09,0.193c-0.099-0.221-0.337-0.316-0.344-0.414
		c0.11-0.103,0.232,0.019,0.312-0.084c0.079,0.103,0.367,0.244,0.542,0.216c-0.12-0.307-0.253-0.567-0.359-0.646
		c0.106-0.079,0.114-0.274,0.114-0.274c-0.419-0.032-0.759-0.023-0.971-0.102c0.02-0.015,0.037-0.029,0.057-0.04h-2.401
		c0.166,0.295,0.325,0.583,0.432,0.843C39.014,11.459,39.031,11.539,39.036,11.639z M32.464,6.125L32.31,6.123
		c0.013,0.036,0.031,0.066,0.046,0.089C32.387,6.172,32.424,6.149,32.464,6.125z M29.966,8.501
		c-0.018-0.024-0.039-0.044-0.057-0.062h-0.413h-0.001C29.598,8.496,29.462,8.561,29.966,8.501z M28.452,6.259
		c0.004-0.037,0.004-0.074-0.013-0.108C28.416,6.196,28.435,6.231,28.452,6.259z M15.513,10.538
		c-0.561,0.086-0.545-0.162-0.947-0.153c-0.049,0.088-0.061,0.278-0.126,0.37h0.22c0-0.004,0-0.008,0-0.012
		C14.66,10.437,15.239,10.736,15.513,10.538z M26.536,6.86c-0.001,0,0.009,0.02,0.024,0.045C26.577,6.868,26.575,6.841,26.536,6.86z
		 M5.598,8.614C5.32,8.423,5.169,8.293,4.974,8.317c0.132-0.31,0.238-0.287,0.368-0.49c-0.386,0.17-0.584,0.696-0.578,0.82
		C5.076,8.533,5.292,8.658,5.598,8.614z M28.452,6.259c-0.003,0.021-0.007,0.044-0.012,0.067
		C28.488,6.313,28.472,6.292,28.452,6.259z M53.243,56.017c-0.017-0.017-0.042-0.027-0.063-0.039
		C53.21,56.044,53.24,56.064,53.243,56.017z M45.932,54.465c-0.066,0.116-0.114,0.219-0.16,0.3h0.762
		c0.055-0.041,0.122-0.081,0.214-0.102C46.535,54.717,46.223,54.591,45.932,54.465z M60.218,53.728
		c-0.305,0-0.305,0.123-0.481,0.152c0.119,0.306,0.281,0.462,0.281,0.462c0.289-0.131,0.504-0.247,0.63-0.308
		C60.522,53.972,60.522,53.728,60.218,53.728z M46.993,57.11c0,0,0.026-0.013,0.065-0.03c0.051-0.021,0.12-0.058,0.179-0.097
		c0,0,0.123-0.071-0.185-0.071c-0.203,0-0.298,0.107-0.428,0.168h0.001c-0.066,0.03-0.141,0.047-0.243,0.03
		c0.017-0.013,0.033-0.024,0.047-0.03h-6.697c-0.058,0.038-0.088,0.086-0.088,0.138c0,0.107,0.044,0.183-0.062,0.183
		c-0.113,0-0.314-0.174-0.466-0.32l-0.344-0.003l0.344-0.002c-0.116-0.108-0.208-0.203-0.215-0.19
		c0.192,0.027,0.314,0.15,0.494,0.11c-0.137-0.187-0.101-0.346,0.105-0.224l-0.225-0.29c0.107-0.075,0.229-0.075,0.361-0.273
		c-0.43,0.073-0.676,0.233-1.011,0.391c0.038,0.078,0.04,0.149,0.043,0.23c-0.079,0.072-0.166,0.158-0.236,0.246h-0.003
		c-0.023,0.028-0.042,0.059-0.062,0.083c-0.009-0.027-0.024-0.052-0.044-0.078H38.32c-0.139-0.169-0.491-0.284-0.754-0.251
		c0.123,0.166,0.218,0.056,0.236,0.251h0c0.002,0.023,0.004,0.049,0.004,0.078c0,0.044-0.183,0.855-0.552,0.855
		c-0.306,0-0.189-0.087-0.189-0.087v-0.319c0.11-0.1,0.251-0.159,0.251-0.159c-0.184-0.048-0.244,0.135-0.244-0.17
		c0-0.298,0.215-0.03,0.352-0.195h0.003c0.002-0.003,0.005-0.008,0.006-0.013c-0.048-0.005-0.094,0.002-0.14,0.006l-0.082-0.001
		c-0.213,0.031-0.402,0.146-0.503,0.289c0.179,0.036,0.24-0.146,0.24,0.159c0,0.308-0.184,0.125-0.362,0.161
		c0.136,0.189,0.136,0.349,0.05,0.452c-0.327-0.233-0.667-0.241-0.974-0.241c-0.626,0-0.762,0.043-1.304,0.629
		c0.123-0.036,0.367-0.036,0.446-0.145c0.08,0.108,0.066,0.167,0.066,0.167c-0.706,0.331-1.042,0.327-1.618,0.462
		c0.008-0.027,0.02-0.036,0.02-0.039c-0.001,0-0.047,0.027-0.245,0.027c-0.244,0-0.295-0.151-1.026,0.123
		c-0.092-0.108-0.151-0.246-0.151-0.246c-0.046,0.183-0.028,0.261-0.108,0.365c-0.079-0.104,0.184-0.242-0.123-0.242
		c-0.304,0,0.185,0.242-0.122,0.242c-0.03,0-0.04-0.002-0.062-0.002c0,0.019,0.002,0.035,0.002,0.062
		c0,0.307-0.245-0.182-0.245,0.123c0,0.307,0.016,0.324-0.061,0.43c-0.203-0.226-0.37-0.489-0.492-0.43
		c0.122,0.061,0.185,0.132,0.185,0.132c-0.105,0.072-0.245,0.112-0.207,0.294c0.189-0.135,0.206-0.06,0.222,0.024l-0.427,0.104
		c-0.097-0.107-0.078-0.188-0.107-0.357c-0.305,0.118-0.522,0.233-0.699,0.269c0.134,0.191,0.256,0.191,0.362,0.26
		c-0.324,0.163-0.659,0.294-0.992,0.405h-0.001c-0.609,0.203-1.214,0.347-1.749,0.527l-0.286-0.239
		c0.059,0.676-0.974,0.448-1.317,0.728c-0.083-0.108-0.125-0.246-0.291-0.227c-0.019,0.166,0,0.241-0.076,0.35
		c-0.338-0.498-0.91-0.564-1.167-0.8c0.086-0.062,0.196-0.189,0.212-0.334h0.001c0-0.001,0-0.002,0-0.004c0-0.001,0-0.001,0-0.001h0
		c0.001-0.027,0.001-0.057-0.004-0.084l-0.09,0.084l-0.303,0.278c-0.079-0.103-0.202-0.103-0.307-0.182
		c0.057-0.044,0.116-0.061,0.181-0.097h-0.208l-0.158,0.155c-0.079-0.103-0.185-0.044-0.185-0.044
		c0.364,0.092,0.83,0.398,0.868,0.937c-0.464,0.22-0.762,0.859-1.312,1.025c-0.813,0.261-1.686,0.566-2.577,0.413
		c-0.196,0.26-0.838,0.312-1.357,0.407c-0.202,0.039-0.387,0.084-0.517,0.147c0.417,0.115,0.346,0.228,0.366,0.234
		c-0.103,0.083-0.244-0.115-0.244,0.188c0,0.222,0.073,0.195,0.077,0.206c0.002,0.004-0.006,0.013-0.03,0.04
		c-0.333-0.119-0.047-0.246-0.355-0.246c-0.611,0-4.49,1.189-5.196,2.295c0.666,0.032,0.91-0.091,1.086-0.123l-0.237-0.267
		l0.208-0.194c0.1,0.004,0.169,0.096,0.169,0.096c-0.008,0.09,0.108-0.123,0.175-0.339c0.067,0.216,0.434,0.459,0.611,0.736
		c0.177-0.277,0.29-0.506,0.365-0.613l0.184,0.186c0.049-0.025,0.148-0.062,0.308-0.062c0.309,0,0.202,0.106,0.309,0.182
		c-0.106,0.08-0.245,0.141-0.245,0.141c0.181,0.048,0.261,0.027,0.419,0.167c0.331-0.175,0.558-0.242,0.68-0.299
		c-0.117-0.036-0.58-0.19-0.735-0.143c0.211-0.056,0.369-0.295,0.673-0.295c0.4,0,0.829,0.494,1.775,0.446
		c-0.277-0.191-0.521-0.191-0.733-0.271c0.105-0.066,0.263-0.189,0.457-0.055c-0.059-0.768,0.602-0.851,0.768-0.851
		c0.308,0-0.122,0.246,0.184,0.246c0.307,0,0.326-0.145,0.466-0.005c0.146,0.005,0.146-0.241,0.37-0.247
		c0.102,0.107-0.021,0.23,0.084,0.311c-0.104,0.079-0.212,0.339-0.212,0.339h-0.278c0.041,0.072,0.551-0.012,0.856-0.231
		c-0.181-0.048-0.244,0.198-0.244-0.107c0-0.305,0.106-0.323,0.186-0.431c0.079,0.107,0.287-0.016,0.366-0.123
		c0.079,0.107,0.061,0.188,0.102,0.366c0,0,0.171-0.369,0.356-0.498c-0.03,0.197-0.03,0.439,0.009,0.622
		c0.189-0.14,0.224-0.14,0.33-0.06c-0.105,0.079,0.019,0.285,0.225,0.414l-0.225-0.3c0.42-0.647,0.614-1.058,1.155-1.399
		c0.088,0.103,0.088,0.351,0.191,0.429c-0.103,0.081-0.243,0.136-0.243,0.136c0.304,0.048,0.505,0.151,0.732,0.355
		c-0.105,0.079-0.185,0.058-0.307,0.123c0.122,0.061,0.307,0.119,0.316,0.21c-0.219,0.1-0.56-0.026-0.804,0.032
		c0.122,0.064,0.183,0.246,0.219,0.426c0.189-0.141,0.226-0.016,0.39,0.063c-0.079-0.162-0.122-0.307,0.185-0.307
		s0.228-0.015,0.307-0.118c0.202,0.221,0.446,0.346,0.634,0.481c0.055-0.375,0.279-0.529,0.338-0.604
		c0.142,0.218,0.333,0.102,0.56,0.293c-0.212,0.08-0.43,0.071-0.552,0.132c0.122,0.062,0.202,0.044,0.305,0.123
		c-0.103,0.081-0.046,0.188-0.046,0.188c0.046-0.064,0.118-0.128,0.118-0.128c0.069,0.108,0.051,0.187,0.055,0.288
		c-0.107,0.098-0.246,0.158-0.246,0.158c0.134,0.048,0.536,0.183,0.795,0.413c0.165-0.14,0.305-0.183,0.305-0.183
		c-0.279-0.179-0.522-0.299-0.734-0.377c0.103-0.069,0.369,0.012,0.369-0.3c0-0.303,0.113-0.453-0.031-0.724
		c-0.156-0.007-0.188,0.123-0.33,0.239c-0.143-0.224-0.028-0.265,0.052-0.43c-0.166,0.079-0.306-0.124-0.318-0.212
		c0.338-0.1,0.713-0.103,0.921-0.219c0.089,0.104,0.089,0.227,0.256,0.307c-0.081-0.167-0.063-0.367-0.081-0.534
		c-0.165-0.015-0.228-0.087-0.228-0.087c0.105-0.072,0.351-0.072,0.422-0.175c0.107,0.195,0.129,0.25,0.167,0.294
		c0.026,0.033,0.062,0.06,0.13,0.12c0.047-0.102,0.031-0.227,0.087-0.294c0.208,0.117,0.208,0.361,0.513,0.485
		c0.029-0.498,0.152-0.498,0.152-0.542c0-0.147-0.057-0.218-0.13-0.267h-0.009c-0.08-0.048-0.175-0.061-0.229-0.104
		c0.104-0.078,0.306-0.062,0.472-0.078c0.019-0.168-0.123-0.207-0.227-0.287c0.349-0.326,0.822-0.68,1.309-0.936
		c-0.113,0.339-0.28,0.494-0.267,0.57c0.165-0.08,0.408-0.203,0.484-0.312l0.189,0.179c-0.34,0.2-0.457,0.566-0.664,0.682
		c-0.09-0.104-0.212-0.104-0.38-0.184c0.202,0.287,0.613,0.431,0.895,0.418c0.145-0.397,0.509-0.637,0.586-0.848
		c0.069,0.104,0.051,0.307,0.069,0.469c0.165,0.021,0.409-0.102,0.532-0.162c-0.123-0.061-0.184-0.116-0.184-0.116
		c0.766-0.147,2.16-0.143,2.186-1.066c0.201,0.021,0.386,0.387,0.693,0.387c0.305,0,1.041-0.859,1.346-0.859
		c0.309,0-0.184,0.247,0.122,0.247s0.517-0.252,0.793-0.41c-0.079-0.185-0.055-0.339-0.039-0.478h0.001
		c0.009-0.076,0.02-0.147,0.005-0.212c-0.19,0.136-0.208,0.304-0.208-0.003c0-0.306,0.116-0.401,0.216-0.62
		c0.088,0.007,0.149-0.116,0.458-0.116c0.306,0,0.366,0.37,0.545,0.329c-0.136-0.188-0.179-0.206,0.126-0.206
		c0.309,0,0.126-0.04,0.247,0.296c-0.106,0.09-0.185,0.075-0.36,0.106l0.275,0.33c0.147,0.004,0.147-0.241,0.453-0.241
		c0.305,0,0.366,0.245,0.675,0.245c0.274,0,1.996-0.796,2.261-1.063c-0.181-0.039-0.259-0.022-0.366-0.103
		c0.107-0.08,0.352-0.08,0.42-0.182c0.078,0.209,0.334,0.102,0.5,0.182c-0.079-0.164,0-0.182,0.1-0.187
		c0.102,0.106,0.206,0.31,0.238,0.489c0.799-0.494,1.298-0.871,1.843-1.467c-0.038,0.309,0.331,0.429,0.377,0.859
		c0.192-0.278,0.381-0.368,0.502-0.431c-0.122-0.061-0.322,0.079-0.43-0.012c0.121-0.367,1.142-0.184,1.406-0.415
		c0.083,0.104,0.083,0.139-0.046,0.342c0.323-0.102,0.564-0.102,0.857-0.218c-0.027,0-0.116,0-0.317,0
		c-0.306,0-0.186-0.076-0.186-0.076c0.15-0.179,0.427-0.202,0.659-0.56c0.026-0.019,0.049-0.034,0.077-0.054
		c-0.013-0.003-0.021-0.015-0.032-0.019c0.044-0.079,0.086-0.168,0.125-0.278h0.313c0.103,0.11,0.103,0.267,0.047,0.377
		c0.037-0.068,0.221-0.003,0.4-0.044c-0.134-0.187-0.012-0.346,0.078-0.449c0.208,0.116,0.436,0.104,0.546,0.206
		c-0.007,0.102-0.116,0.256-0.116,0.256c0.424-0.02,0.581,0.077,0.56,0.099v0.539c0.157-0.275,0.157-0.646,0.234-0.857
		c0.069,0.107-0.133,0.248,0.173,0.248c0.305,0,0.184-0.125,0.362-0.161c-0.136-0.189-0.381-0.189-0.484-0.257
		c0.088-0.037,0.149-0.1,0.208-0.15H47.35C47.26,57.106,47.148,57.127,46.993,57.11z M22.682,64.261l-0.299,0.317h0.667
		C22.927,64.503,22.847,64.4,22.682,64.261z M57.401,54.954c-0.307,0-0.655-0.12-1.076-0.235c-0.026,0.175,0.36,0.216,0.464,0.294
		l-0.242,0.268c0.181,0.041,0.058-0.201,0.364-0.201c0.305,0,0.43,0,0.717-0.021c0.018-0.164,0.115-0.339,0.115-0.339
		C57.541,54.848,57.708,54.954,57.401,54.954z M55.357,54.834c-0.144,0.137-0.28,0.197-0.28,0.197
		c0.18,0.042,0.427,0.165,0.549,0.104c-0.122-0.062-0.186-0.134-0.186-0.134c0.106-0.067,0.186-0.048,0.308-0.112
		C55.625,54.83,55.357,54.834,55.357,54.834z M26.785,64.077c-0.008-0.007-0.01-0.008-0.017-0.015
		c-0.006,0.014-0.009,0.027-0.017,0.038C26.763,64.092,26.771,64.089,26.785,64.077z M23.968,60.393
		c-0.28-0.167-0.498-0.138-0.614-0.344c0.107-0.094,0.107-0.217,0.187-0.32c0.078,0.104,0.06,0.183,0.122,0.308
		c0.061-0.125,0.043-0.204,0.179-0.392c-0.179-0.039-0.241-0.1-0.241-0.1c0.21-0.066,0.21-0.314,0.487-0.503
		c-0.396-0.045-1.054-0.161-1.223-0.239c0.105-0.072,0.105-0.191,0.194-0.3c0.208,0.116,0.524,0.228,0.659,0.039
		c-0.177-0.039-0.364,0.021-0.364-0.281c0-0.307,0.212-0.132,0.492-0.298c-0.14-0.176-0.165-0.312-0.165-0.312
		c-0.292,0.123-0.327,0.244-0.631,0.244c-0.307,0-0.203,0.015-0.307-0.064c0.104-0.08,0.246-0.122,0.227-0.29
		c-0.287-0.018-0.409-0.263-0.59-0.224c0.136,0.19,0.058,0.206-0.25,0.206c-0.073,0-0.469,0.116-0.49-0.443c0-0.015,0-0.031,0-0.045
		c0-0.307,0.061-0.366-0.089-0.362c-0.119,0.171-0.114,0.27-0.132,0.407l0.111,0.002l-0.111,0.001
		c-0.015,0.099-0.041,0.222-0.144,0.401c0.406,0.159,0.751,0.145,0.977,0.347c-0.104,0.079-0.226,0.079-0.362,0.215v0.41
		c0.124,0.26,0.38,0.521,0.609,0.725c-0.105,0.079-0.247-0.184-0.247,0.118c0,0.307,0.018,0.327-0.109,0.525
		c0.383-0.131,0.369-0.671,0.452-0.963c0.088,0.013,0.167-0.008,0.271,0.084c-0.116,0.208-0.104,0.434-0.24,0.624
		c0.412,0.023,0.65,0.258,0.729,0.338c-0.103,0.084-0.304,0.192-0.402,0.195c-0.105-0.111-0.162-0.251-0.162-0.251
		c-0.047,0.185-0.229,0.248-0.352,0.308c0.123,0.061,0.2,0.042,0.305,0.119c-0.211,0.158-0.383,0.125-0.433,0.271h-0.004
		c-0.012,0.039-0.017,0.09-0.012,0.163l-0.167-0.16h-0.001l-0.088-0.084v0.084h0.001v0.387c0.435-0.015,0.214,0.445,0.23,0.608
		h0.456c0.02-0.163,0.035-0.366,0.243-0.243c-0.332-0.464-0.4,0.078-0.433,0.141v-0.533c0.097-0.116,0.181-0.239,0.251-0.359
		l-0.24-0.002l0.24-0.001c0.068-0.116,0.125-0.231,0.174-0.338c0.334,0.009,0.438,0.128,0.438,0.128s0.221-0.017,0.326,0.062
		l-0.15,0.15l0.209-0.003C23.839,60.521,23.9,60.477,23.968,60.393z M15.518,65.794l-0.003-0.003
		c-0.022,0.011-0.037,0.021-0.036,0.021C15.479,65.818,15.494,65.809,15.518,65.794z M38.542,56.633
		c0.027-0.012,0.058-0.021,0.083-0.034c-0.009-0.018-0.008-0.034-0.022-0.053C38.581,56.574,38.562,56.604,38.542,56.633z
		 M38.542,56.633c-0.078,0.035-0.153,0.07-0.245,0.103C38.432,56.776,38.49,56.712,38.542,56.633z M31.315,59.192
		c0,0-0.082,0.037,0.122,0.045C31.427,59.042,31.372,59.236,31.315,59.192z M54.304,54.765H47.69
		c-0.115,0.098-0.218,0.198-0.278,0.309c-0.062-0.091-0.165-0.194-0.316-0.309h-0.002c-0.02-0.021-0.042-0.036-0.064-0.054
		c-0.002,0.016-0.006,0.029-0.01,0.048h-0.001c-0.04,0.144-0.104,0.199-0.268,0.231c0.137,0.191,0.137,0.227,0.06,0.331l-0.43-0.432
		c0.052-0.035,0.097-0.083,0.153-0.125l-0.762,0.003c-0.06,0.114-0.106,0.187-0.165,0.19c-0.045-0.048-0.045-0.124-0.053-0.193
		h-0.001c-0.012-0.095-0.042-0.177-0.214-0.177c-0.307,0-0.325,0.141-0.522,0.008c0,0,0.047,0.063,0.099,0.169
		c0.057,0.11,0.117,0.273,0.117,0.432c0,0.308-0.106,0.387-0.306,0.614c-0.08-0.104-0.08-0.265,0.046-0.465l-0.314,0.226
		c-0.1-0.005-0.439,0.123-0.651,0.048c0.106-0.073,0.106-0.191,0.241-0.382c-0.18-0.041-0.333-0.151-0.333-0.151
		c-0.03,0.294-0.152,0.664-0.134,0.867c-0.08-0.02-0.367,0-0.447,0.104c-0.08-0.104-0.202-0.351-0.308-0.423
		c0.212-0.075,0.43-0.067,0.675-0.13c-0.123-0.061-0.325-0.168-0.506-0.302c-0.333,1.048-1.516,0.715-1.516,1.036
		c0,0.308,0.062,0.308-0.036,0.312c-0.104-0.11-0.226-0.144-0.146-0.312c-0.165,0.08-0.043,0.288,0.062,0.355
		c-0.478,0.167-1.347,0.278-1.626,0.486l6.697-0.005c0.409-0.331,0.001-0.634,0.614-0.283c0.088-0.106,0.2-0.159,0.122-0.369
		c-0.068,0.104-0.236,0.246-0.358,0.183c0.122-0.06,0.203-0.287,0.368-0.431c0.166,0.144,0.367,0.248,0.612,0.307
		c-0.122,0.064-0.312,0.151-0.43,0.359c0.105,0.092,0.308-0.049,0.43,0.011c-0.163,0.04-0.257,0.159-0.438,0.229l0.464-0.005
		c0.076-0.075,0.144-0.128,0.261-0.056l-0.231-0.266c0.29,0.038,0.492,0.173,0.673,0.326c0.136,0.111,0.26,0.229,0.399,0.317
		c0.014-0.116,0.039-0.217,0.064-0.314h0.001c0.042-0.163,0.085-0.307,0.073-0.426h0.659c-0.327-0.104-0.667-0.107-0.904-0.095
		c0.018-0.198,0.122-0.402,0.212-0.506c0.207,0.116,0.357,0.366,0.503,0.362c0.142-0.136,0.221-0.362,0.527-0.362
		c0.306,0,0.141-0.02,0.25,0.083c-0.004,0.099-0.231,0.179-0.36,0.377c0.321-0.103,0.461-0.233,0.54-0.342
		c0.079,0.108,0.367,0.248,0.489,0.189c-0.122-0.065-0.324-0.169-0.43-0.237c0.211-0.077,0.458-0.203,0.735-0.392
		c-0.183-0.046-0.305,0.075-0.377,0.096v-0.304c0.114-0.1-0.008-0.191-0.112-0.267c0.104-0.079,0.349-0.079,0.419-0.188
		c0.077,0.215,0.315,0.431,0.332,0.721c0.642,0.017,0.575,0.273,0.954,0.354c-0.129-0.194-0.359-0.032-0.359-0.337
		c0-0.307,0.104-0.383,0.208-0.494c0.222,0.005,0.466,0.127,0.663,0.099c-0.133,0.314-0.257,0.338-0.257,0.338
		c0.119,0.135,0.309,0.158,0.432,0.225c-0.033-0.069-0.065-0.192-0.065-0.351c0-0.306,0.122-0.491,0.104-0.569
		c0.201,0.016,0.491,0,0.566-0.104l0.188,0.182c-0.105,0.081-0.245,0.108-0.245,0.108l0.296,0.319
		c0.281-0.128,0.16-0.37,0.438-0.565c-0.183-0.044-0.385-0.027-0.491-0.096C54.078,54.862,54.192,54.812,54.304,54.765z
		 M73.873,48.276c0.245,0.065,0.533,0.167,0.662-0.033C74.213,48.345,73.995,48.218,73.873,48.276z M73.811,47.546
		c0.105-0.081,0.185-0.187,0.307-0.247c-0.122-0.06-0.413-0.164-0.551,0c0.138,0.166,0.138,0.286,0.282,0.426
		c0.147,0.003,0.269-0.12,0.39-0.179C74.118,47.481,73.916,47.621,73.811,47.546z M75.099,47.299
		c0.243,0.061,0.489,0.183,0.61,0.124C75.464,47.359,75.219,47.239,75.099,47.299z M73.083,48.255
		c-0.11,0.102-0.191,0.087-0.29,0.09c-0.223-0.23-0.711-0.23-0.944-0.409c0.065,0.041,0.003,0.223,0.042,0.401
		c0.191-0.14,0.225-0.14,0.329-0.061c-0.104,0.08-0.104,0.203-0.183,0.308c-0.078-0.104-0.299-0.093-0.299-0.093
		c0.389,0.327,0.517,0.579,0.73,0.662c-0.239,0.381-0.46,0.402-0.735,0.611c0.456,0.045,0.684-0.187,1.159-0.688l0.268,0.239
		c0,0,0.163-0.31,0.019-1.206C73.015,48.094,73.083,48.255,73.083,48.255z M74.433,48.066c0.175,0.027,0.339,0.008,0.42-0.155
		c-0.166,0.08-0.183,0.242-0.183-0.061c0-0.305,0.368-0.182,0.349-0.351c-0.166-0.019-0.319-0.13-0.319-0.13
		C74.669,47.669,74.553,47.76,74.433,48.066z M56.98,51.528c0,0,0.002-0.001,0.003-0.001c0-0.001,0-0.002-0.001-0.004
		C56.985,51.526,56.979,51.525,56.98,51.528z M62.685,53.343c0.287,0.017,0.506,0.012,0.811,0.131
		c0.028-0.175,0.01-0.378,0.146-0.573h-0.834C62.789,53.057,62.667,53.176,62.685,53.343z M56.98,51.528
		c-0.028,0.004-0.042,0.008-0.042,0.012C56.938,51.552,56.991,51.554,56.98,51.528z M69.465,49.385
		c-0.246-0.063-0.586-0.18-0.797-0.26c0.104-0.067,0.242-0.128,0.242-0.128c-0.182-0.043-0.26-0.151-0.364-0.227l0.349-0.327
		l-0.282,0.141c-0.085-0.104-0.25-0.12-0.373-0.06c0.122,0.06,0.202,0.042,0.306,0.123c-0.104,0.081-0.104,0.198-0.194,0.307
		c-0.207-0.121-0.182-0.211-0.359-0.43c0.071,0.273,0.079,0.446,0.01,0.553c-0.077-0.211-0.333-0.349-0.523-0.49
		c-0.038,0.304-0.154,0.398-0.229,0.608c-0.192-0.225-0.235-0.364-0.381-0.362c-0.144,0.138-0.144,0.26-0.223,0.423
		c0.166-0.075,0.166-0.198,0.245-0.302c0.479,0.501,0.21,0.199,0.555,0.442c-0.12,0.201-0.248,0.413-0.555,0.413
		c-0.305,0-0.183-0.072-0.183-0.072c0.104-0.067,0.245-0.128,0.245-0.128c-0.184-0.043-0.354-0.142-0.354-0.142
		c0.128,0.202,0.11,0.219-0.194,0.219c-0.308,0-0.062-0.247-0.369-0.247c-0.307,0-0.247,0.127-0.411,0.144
		c-0.012,0.179-0.104,0.373-0.222,0.544l1.024,0.002l-1.023,0.002c-0.072,0.108-0.149,0.209-0.227,0.29
		c-0.076-0.103-0.202-0.103-0.306-0.182c0.06-0.049,0.166-0.063,0.27-0.112h0.002c0.079-0.03,0.156-0.078,0.215-0.154
		c-0.179-0.04-0.424-0.163-0.548-0.103c0.124,0.062,0.185,0.11,0.185,0.11c-0.553-0.048-1.163-0.048-1.811-0.035
		c-0.021,0.056-0.062,0.117-0.114,0.179h-0.002c-0.219,0.261-0.656,0.545-0.952,0.545c-0.307,0-0.325-0.23-0.36-0.314v-0.228
		l-0.05,0.004c-0.374,0.499,0.09,0.758-0.675,0.903c-0.097-0.104-0.141-0.246-0.141-0.246c-0.177,0.279-0.393,0.375-0.663,0.522
		c-0.009,0.153,0.131,0.229,0.027,0.341c-0.097-0.003-0.036-0.25-0.341-0.25c-0.308,0-0.247,0.122-0.369,0.187
		c0.123,0.061,0.185,0.115,0.185,0.115c-0.325,0.068-0.687,0.068-1.257,0.195c-0.093-0.334-0.354-0.6-0.618-0.859
		c-0.148-0.005-0.224,0.134-0.334,0.035c0.004-0.103,0.063-0.222,0.063-0.222c-0.176,0.215-0.243,0.426-0.365,0.488
		c0.122,0.061,0.229,0.183,0.229,0.183c0.135,0,0.182-0.139,0.258-0.245c0.08,0.106,0.08,0.35,0.186,0.425l-0.193,0.188
		c-0.208-0.116-0.297-0.367-0.603-0.367c-0.056,0-0.088,0.002-0.112,0.004c0.127,0.492-0.201,0.396-0.385,0.729
		c-0.071-0.104-0.055-0.243-0.361-0.243c-0.214,0-0.53,0.21-0.788,0.427c-0.243,0.198-0.434,0.401-0.442,0.428
		c-0.074-0.102-0.116-0.365-0.528-0.345c-0.017,0.163-0.202,0.226-0.299,0.231c-0.132-0.136-0.191-0.239-0.264-0.319h-0.004
		c-0.047-0.054-0.101-0.096-0.186-0.131c0.172-0.191,0.333-0.068,0.074-0.656c-0.164,0.128-0.144,0.321-0.199,0.369
		c0.004,0.025,0.004,0.111,0.004,0.302c0,0.044-0.007,0.079-0.021,0.116h0c-0.075,0.211-0.343,0.295-0.329,0.54
		c0.167,0.016,0.167-0.227,0.265-0.23c0.104,0.107,0.104,0.23,0.207,0.312c-0.104,0.078-0.226,0.078-0.329,0.187
		c-0.344-0.003-0.449-0.124-0.449-0.124s-0.221,0.016-0.324-0.062c0.104-0.081,0.226-0.081,0.363-0.272
		c-0.18-0.035-0.424-0.035-0.599-0.007c0.121,0.307,0.479,0.521,0.479,0.827c0,0.307-0.334,0.375-0.519,0.502
		c0.031-0.072,0.154-0.135,0.154-0.438c0-0.31-0.264-0.534-0.469-0.66l0.224,0.278c-0.671,0.295-0.326-0.075-0.744,0.104
		c0.111-0.048,0.129,0.031,0.134,0.131c-0.108,0.099-0.23,0.099-0.309,0.206c-0.08-0.107-0.108-0.242-0.108-0.242l-0.262,0.242
		c-0.077-0.107-0.243,0-0.365,0.061c0.122,0.062,0.323,0.044,0.429,0.116c-0.212,0.075-0.228,0.329-0.297,0.438
		c-0.077-0.212-0.334-0.228-0.477-0.365c-0.146-0.005-0.485,0.003-0.787-0.116c-0.062,0.338-0.032,0.358-0.43,0.365
		c-0.099-0.219-0.462-0.334-0.619-0.624c0.249,0.524-0.333,0.818-0.735,1.163l6.616-0.006c0.113-0.055,0.227-0.115,0.331-0.175
		c0.059,0.072,0.08,0.111,0.061,0.181h0.001c-0.009,0.029-0.027,0.075-0.052,0.125c0.165-0.078,0.245-0.06,0.426-0.107
		c-0.013-0.007-0.023-0.011-0.035-0.018h-0.001c-0.513-0.3-1.126-0.423-1.678-0.498c0.344-0.216,0.55-0.264,0.788-0.542
		c0.077,0.215,0.209,0.354,0.371,0.494c0.409-0.254,0.896-0.503,1.225-0.737c0.086,0.108,0.086,0.267-0.051,0.453
		c0.179,0.037,0.363-0.023,0.373,0.068c-0.222,0.1-0.358,0.354-0.495,0.545c0.179,0.04,0.345-0.224,0.424-0.329
		c0.08,0.105,0.074,0.219,0.074,0.219c0.128,0.13,0.511,0.144,0.77,0.27c0.503,0,0.664-0.134,0.664-0.134
		c0.293-0.665,0.499-0.319,0.935-0.602c0.085,0.106,0.128,0.247,0.295,0.227c0.019-0.287,0.141-0.41,0.141-0.713
		c0-0.31-0.141-0.351-0.244-0.429c0.103-0.081,0.226-0.081,0.306-0.188c0.418,0.359,0.479,0.188,0.931,0.228
		c-0.013,0.08-0.26,0.08-0.248,0.239c0.141,0.056,0.32-0.009,0.806,0.146c0.201-0.335,0.147-0.241,0.29-0.281
		c-0.11,0.055,0.179,0.285,0.324,0.279c0.142-0.137,0.126-0.491,0.403-0.683c-0.181-0.048-0.243-0.115-0.243-0.115
		c0.147-0.079,0.291-0.171,0.433-0.246c0.188-0.1,0.374-0.179,0.549-0.179c0.304,0,0.14-0.018,0.243,0.062
		c-0.096,0.073-0.173,0.066-0.28,0.116h-0.01c-0.005,0-0.011,0.005-0.016,0.007c0.123,0.061,0.278,0.172,0.278,0.172
		c0.011-0.077,0.057-0.132,0.117-0.174h0.005c0.072-0.049,0.173-0.075,0.269-0.097c-0.136-0.191-0.147-0.322-0.147-0.322
		c-0.155-0.008-0.356,0.011-0.38-0.067v-0.191c0.043,0.069,0.348,0.251,0.653,0.251c0.255,0,0.818-0.094,1.264-0.263
		c0.062-0.015,0.115-0.035,0.157-0.066c0.032-0.015,0.072-0.025,0.101-0.042c0.088,0.108,0.07,0.189,0.08,0.279
		c-0.311,0.184-0.418,0.283-0.624,0.519c-0.066,0.075-0.14,0.162-0.239,0.269c0.179,0.04,0.301,0.159,0.426,0.101
		c-0.125-0.061-0.185-0.13-0.185-0.13c0.096-0.085,0.187-0.169,0.281-0.244c0.133-0.104,0.27-0.187,0.437-0.196
		c0.017-0.285,0.011-0.38,0.086-0.597l0.223,0.248c0.402-0.125,0.549-0.506,0.75-0.733c0.08,0.104,0.429,0.061,0.417-0.099
		c-0.524-0.143-1.251-0.02-1.826-0.195c0.063,0.048,0.264,0.15,0.371,0.217l-0.413,0.077c-0.097-0.107-0.203-0.305-0.216-0.473
		h-0.454c-0.264,1.006-0.94,0.123-1.432,0.717c-0.078-0.103-0.058-0.184-0.065-0.282c0.109-0.105,0.147-0.105,0.312-0.024
		c-0.079-0.164-0.203-0.164-0.308-0.234c0.458-0.2,1.854-0.562,1.9-0.562c0.307,0,0.673,0.489,0.979,0.489
		c0.308,0-0.184-0.242,0.121-0.242c0.309,0,1.695,0.118,2.39,0.317c-0.105,0.067-0.306,0.048-0.428,0.108
		c0.122,0.062,0.243,0.186,0.551,0.186c0.306,0,0.482-0.158,0.594-0.473c-0.314,0.11-0.505,0.11-0.717,0.045
		c0.299-0.132,0.559-0.373,0.854-0.599h0.004c0.306-0.231,0.646-0.444,1.102-0.509c-0.184-0.056-0.385-0.039-0.495-0.142
		c0.004-0.096,0.075-0.159,0.075-0.159C69.053,49.423,69.343,49.439,69.465,49.385z M55.748,52.749
		c-0.08,0.104-0.182,0.242-0.182-0.062c0-0.304-0.062-0.061-0.243-0.101c0,0,0.188-0.015,0.257-0.146h0.003
		c0.009-0.021,0.015-0.037,0.019-0.053c0.022,0.016,0.042,0.032,0.063,0.053h0.003c0.142,0.138,0.211,0.314,0.265,0.356
		C55.934,52.797,55.829,52.853,55.748,52.749z M57.346,52.436h-0.002c-0.093-0.076-0.19-0.167-0.308-0.251
		c0.232-0.036,0.375,0.104,0.555,0.256h-0.001c0.056,0.048,0.113,0.096,0.179,0.138C57.594,52.606,57.47,52.536,57.346,52.436z
		 M67.925,50.127c-0.053,0.093-0.108,0.191-0.164,0.294c-0.162-0.126-0.291-0.174-0.31-0.294h-0.002
		c-0.001-0.012-0.002-0.024-0.002-0.036c0.138-0.143-0.004-0.341,0.005-0.496c0.271-0.147,0.646-0.271,1.084-0.366
		C68.333,49.482,68.143,49.762,67.925,50.127z M62.424,53.68c0.183,0.048,0.244,0.12,0.244,0.12
		c-0.106,0.069-0.456,0.057-0.731,0.259c0.444-0.087,0.825-0.094,1.213-0.421C62.823,53.733,62.701,53.49,62.424,53.68z
		 M70.321,48.584c-0.202-0.228-0.307-0.431-0.366-0.551c-0.062,0.12,0.061,0.236,0.061,0.236c-0.349,0.333-0.606,0.593-0.718,0.907
		c0.316-0.106,0.413,0.145,0.566,0.135c0.146-0.271,0.267-0.394,0.325-0.604c0.026,0.486,0.831,0.545,1.4,0.726v-0.697
		c-0.434-0.181-0.864-0.471-1.058-0.505C70.507,48.401,70.4,48.479,70.321,48.584z M17.48,66.39
		c0.276,0.191,0.549,0.195,0.671,0.135c-0.122-0.06-0.183-0.128-0.183-0.128l0.183-0.178c0.08,0.103,0.245,0,0.308-0.044
		c-0.213,0.051-0.43,0.044-0.577,0.048C17.741,66.362,17.663,66.342,17.48,66.39z M17.451,48.206
		c-0.072-0.229,0.025-0.323,0.116-0.394l-0.246,0.002C17.292,47.923,17.313,48.117,17.451,48.206z M49.732,56.661
		c0.1,0.108,0.219,0.111,0.333,0.155C49.96,56.749,49.847,56.699,49.732,56.661z M20.662,58.077
		c0.104-0.078,0.046-0.187,0.046-0.187c-0.046,0.063-0.168,0.196-0.168,0.196c0.141,0.154,0.384,0.188,0.305,0.356
		C21.01,58.365,20.766,58.157,20.662,58.077z M13.131,36.952c0.079,0.104,0.122,0.367,0.301,0.328
		c-0.137-0.191-0.058-0.207,0.026-0.224c0.069,0.481,0.149,0.979,0.238,1.492l3.165-0.004c-0.045-0.238-0.363-0.207-0.363-0.49
		c0-0.31-0.018-0.143,0.037-0.251c-0.037,0.064,0.212,0.044,0.212,0.044c-0.174-0.098-0.372-0.593-0.389-1.002
		c-0.287-0.02-0.383-0.136-0.595-0.21c0.106-0.073,0.351-0.073,0.485-0.216c0.005-0.145-0.177,0.04-0.272,0.048l-0.215-0.215
		c0.003-0.1,0.125-0.342,0.109-0.511c-0.167-0.019-0.29-0.137-0.469-0.102c0.137,0.191,0.241,0.206-0.064,0.206
		c-0.291,0-0.367-0.448-0.797-0.679c0.104-0.072,0.305-0.052,0.477-0.068v-0.561c-0.126-0.142-0.354-0.222-0.373-0.301
		c0.202,0.019,0.282,0,0.448,0.079c-0.062-0.124-0.145-0.293-0.226-0.4c-0.026-0.036-0.055-0.067-0.081-0.084l0.208-0.192
		c0.099,0.003,0.272,0.098,0.272,0.098c-0.428-0.388-0.511-0.5-0.848-0.643c0.212-0.071,0.428,0.058,0.607,0.025l-0.298-0.335
		c-0.286,0.214-0.432,0.037-0.678-0.07c0.107-0.07,0.266-0.193,0.469-0.066c-0.232-0.448-0.466-0.598-0.466-0.904
		c0-0.306,0.244,0.151,0.243-0.152v-0.484c-0.139-0.144-0.522-0.151-0.742-0.252c0.008-0.091-0.011-0.17,0.06-0.275
		c0.078,0.212,0.377,0.245,0.559,0.198c-0.338-0.222-0.444-0.546-0.556-0.809c-0.054,0.184,0.129,0.246-0.178,0.246
		c-0.266,0-0.254-0.517-0.27-0.932h-0.001c-0.004-0.06-0.006-0.113-0.01-0.167c-0.073,0.061-0.15,0.111-0.224,0.164h-0.002
		c-0.249,0.164-0.484,0.28-0.544,0.444c-0.071-0.106-0.051-0.185-0.051-0.185c0.059-0.109,0.114-0.191,0.173-0.257l-1.679-0.002
		l1.678-0.002c0.061-0.072,0.119-0.135,0.184-0.204V28.64c-0.171-0.017-0.234-0.08-0.239-0.178c0.111-0.103,0.19-0.205,0.251-0.262
		c-0.167-0.019-0.375-0.122-0.412-0.14v-0.179c0.042,0.067,0.351,0.129,0.52,0.106c-0.11-0.545,0.013-0.958-0.292-0.958
		c-0.153,0-0.308,0.031-0.308-0.12c0,0.09-0.214,0-0.306,0c-0.306,0-0.202,0.018-0.309-0.083v-0.444
		c0.107-0.105,0.229-0.348,0.309-0.455c0.08,0.107,0.135,0.244,0.135,0.244c0.079-0.469-0.343-0.838-0.687-0.93
		c0.106-0.067,0.307-0.048,0.489-0.096c-0.277-0.191-0.506-0.057-0.611-0.133l0.24-0.272c-0.176-0.036-0.301,0.208-0.394,0.214
		l-0.214-0.208v-0.096h-0.001v-0.238c0.119-0.232,0.372-0.382,0.366-0.529c-0.137-0.143-0.154-0.276-0.154-0.276
		c-0.593,0.151-0.895-0.087-1.065-0.316c0.115-0.214,0.333-0.43,0.606-0.585c-0.12-0.409-0.484-0.818-0.484-1.125
		c0-0.306,0.243,0.062,0.243-0.246c0-0.304-0.122-0.244-0.134-0.401c0,0-0.373-0.01-0.478-0.087c0.105-0.08,0.186-0.185,0.362-0.222
		c-0.134-0.188-0.344,0.058-0.423,0.16c-0.077-0.103-0.201-0.103-0.306-0.181l0.24-0.271c-0.292-0.038-0.357-0.038-0.362-0.314
		v-0.031c0-0.136,0.05-0.216-0.188-0.569c-0.003,0.016-0.043,0.02-0.178,0.02c-0.306,0-0.149-0.602-0.491-0.803
		C8.52,18.563,8.66,18.52,8.64,18.437h0.502c-0.181-0.417-0.262-0.903-0.445-1.314l-0.46,0.003c0.041,0.124,0.07,0.242,0.169,0.26
		c0,0-0.113,0.155-0.175,0.276c-0.046-0.096-0.131-0.267-0.147-0.536H7.3c0.169,0.096,0.354,0.13,0.501,0.311l-0.712,0.15
		c-0.018-0.141-0.099-0.267-0.032-0.461H6.341v0.138c-0.22,0.098-0.498,0.277-0.48,0.44c0.288,0.02,0.367,0.248,0.472,0.325
		c-0.105,0.08-0.185,0.309-0.366,0.354c0.277,0.193,0.508,0.181,0.738,0.399v0.326c-0.108,0.102-0.23,0.226-0.372,0.392l0.379,0.328
		c-0.286-0.228-0.011-0.467-0.05-0.52c0.057,0.111,0.282,0.191,0.322,0.492c0.189-0.136,0.206-0.24,0.513-0.24
		c0.306,0,0.324,0.227,0.428,0.307c-0.08,0.07-0.131,0.117-0.174,0.157l0,0c-0.073,0.068-0.122,0.122-0.235,0.248
		c0.078,0.041,0.169,0.082,0.25,0.139c0.039-0.3,0.039-0.362,0.344-0.362s0.203-0.017,0.305,0.062
		c-0.103,0.079-0.225,0.201-0.366,0.367c0.141,0.165,0.366,0.062,0.366,0.368c0,0.305-0.07,0.185-0.07,0.185
		c-0.069-0.107,0.193-0.246-0.112-0.246c-0.307,0-0.29,0.264-0.368,0.429c0.166-0.08,0.288-0.08,0.368-0.183
		c0.08,0.103,0.305,0.304,0.311,0.403c-0.231,0.226-0.495,0.391-0.477,0.557c0.166,0.018,0.368-0.121,0.471-0.041
		c-0.104,0.077-0.348,0.201-0.48,0.333c0,0-0.131,0.279-0.094,0.58c0.188-0.137,0.226-0.014,0.33,0.062l-0.244,0.248
		c0.141,0.167,0.197,0.306,0.197,0.306c0.047-0.185,0.029-0.264,0.108-0.368c0.324,0.351,0.559,0.701,0.675,0.909
		c-0.106,0.091-0.309-0.051-0.43,0.012c0.121,0.062,0.185,0.132,0.185,0.132l-0.185,0.232c0.167-0.078,0.201-0.078,0.308,0
		c-0.107,0.08-0.187,0.188-0.359,0.217c0.003,0.012,0.01,0.024,0.016,0.039h0.003c0.121,0.259,0.338,0.241,0.344,0.334
		c-0.11,0.104-0.19,0.086-0.372,0.134c0.277,0.191,0.644,0.436,0.864,0.534C9.395,25.99,9.272,26.11,9.292,26.2H8.911
		c0.134,0.199,0.115,0.279,0.177,0.401c0.062-0.122,0.124-0.306,0.222-0.309c0.102,0.106,0.19-0.016,0.269-0.121
		c0.079,0.105,0.244,0.246,0.424,0.211c-0.137-0.191-0.058-0.211,0.12-0.216v0.208l0.082,0.544l-0.687-0.067
		c0.061,0.059,0.029,0.292,0.029,0.292c0.276,0.011,0.479-0.131,0.589-0.028c-0.007,0.099-0.11,0.178-0.191,0.343
		c0.168-0.08,0.184-0.244,0.184,0.062c0,0.309-0.184,0.124-0.306,0.184c0.245,0.062,0.447,0.167,0.552,0.246
		c-0.105,0.081-0.262,0.204-0.378,0.157c0.167,0.144,0.283,0.506,0.624,0.704c-0.107,0.075-0.491,0.058-0.491,0.365v0.109h0
		c0,0.27,0.002,0.536,0.018,0.79c0.165,0.017-0.018-0.228,0.287-0.228c0.308,0,0.585,0.238,0.798,0.31
		c-0.446,0.236-0.483,0.458-0.726,1.01c0.175,0.028,0.236-0.217,0.542-0.217c0.305,0,0.562,0.463,0.796,0.786l-0.186,0.194
		c-0.078-0.105-0.111-0.244-0.111-0.244c-0.176,0.139-0.194-0.002-0.194,0.307c0,0.304,0.14,0.163,0.248,0.238l-0.248,0.248
		c0.14,0.166,0.37-0.06,0.37,0.246c0,0.307-0.125,0.244-0.085,0.422c0.189-0.133,0.348,0.11,0.451,0.202
		c-0.116,0.206-0.183,0.415-0.345,0.433v0.135v0.452c0.31-0.118,0.485-0.131,0.591-0.036c-0.167,0.438-0.196,0.555-0.295,0.906
		c0.049-0.188,0.154-0.509,0.332-0.741c-0.039,0.31,0.211,0.656,0.096,1.08c0.171,0.027,0.352-0.141,0.352-0.141
		c-0.126-0.29-0.137-0.465-0.049-0.57c0.208,0.116,0.455,0.116,0.667,0.191c-0.228,0.196-0.492,0.239-0.488,0.388
		c0.136,0.139,0.241,0.342,0.303,0.465c0.06-0.123,0.042-0.203,0.121-0.306c0.08,0.103,0.185,0.183,0.185,0.488
		c0,0.307-0.362,0.4-0.428,0.612c-0.068-0.212-0.218-0.604-0.523-0.727c-0.029,0.174,0.093,0.421,0.13,0.6
		c0.19-0.135,0.228,0.106,0.331,0.188c-0.103,0.078-0.14,0.321-0.307,0.246c0.079,0.164,0.079,0.287,0.268,0.422
		C13.069,37.255,13.051,37.057,13.131,36.952z M7.875,19.069c-0.175-0.14-0.377-0.243-0.556-0.28
		c0.134-0.19,0.424-0.086,0.521-0.082c0.103-0.108-0.019-0.229,0.171-0.367C8.047,18.52,8.042,18.79,7.875,19.069z M20.789,54.787
		c0.006-0.008,0.012-0.016,0.018-0.022l-0.279-0.006c0.008,0.033,0.013,0.075,0.013,0.131c0,0.307-0.105,0.204-0.246,0.383
		c0,0,0.28,0.04,0.5,0.139c-0.011,0.093-0.114,0.172-0.205,0.278c-0.207-0.118-0.436-0.106-0.545-0.21
		c0.003-0.235-0.059-0.497-0.061-0.715h-0.325c-0.037,0.047-0.066,0.098-0.092,0.158c0.663,0.06,0.3,0.474,0.382,0.752
		c0.525,0.042,0.702-0.096,1.201,0.321c-0.104,0.076-0.348,0.076-0.428,0.179c-0.079-0.103-0.137-0.239-0.137-0.239
		c-0.045,0.18,0.216,0.471,0.323,0.539c-0.211,0.078-0.458-0.045-0.736,0.146c0.184,0.048,0.263,0.028,0.368,0.107
		c-0.105,0.08-0.246-0.123-0.246,0.184c0,0.075,0.008,0.132,0.023,0.168l0.244-0.005c0.082-0.097,0.089-0.31,0.186-0.415
		c0.22,0.009,0.492,0,0.77-0.191c-0.181-0.046-0.261-0.029-0.368-0.103l0.247-0.241c-0.256-0.411-0.491-0.559-0.491-0.864
		c0-0.307,0.095-0.194,0.095-0.194c0.089,0.007,0.089,0.255,0.396,0.255c0.305,0,0.385-0.14,0.493-0.036
		c-0.003,0.095-0.249-0.024-0.249,0.281c0,0.307,0.246-0.062,0.246,0.244c0,0.305-0.246,0.428-0.228,0.716
		c0.26,0.02,0.443,0.293,0.616,0.554h0.003c0.017,0.026,0.034,0.052,0.049,0.075c0.003-0.024,0.003-0.052,0.003-0.075h0.003
		c0-0.411-0.327-0.859-0.327-1.146c0-0.307-0.018-0.14,0.075-0.247c0.334,0.119,0.557,0.226,0.883,0.477
		c-0.202-0.416-0.253-0.194-0.467-0.413c0.103-0.081,0.243-0.136,0.243-0.136c-0.182-0.048-0.26-0.031-0.367-0.098
		c0.211-0.081,0.35-0.335,0.487-0.526c-0.302-0.036-0.452,0.214-0.637,0.337c0.029-0.066,0.151-0.131,0.151-0.438
		c0-0.241-0.157-0.06-0.22-0.125l-0.803-0.006c0.043,0.083,0.084,0.176,0.151,0.295C21.265,54.994,21.173,54.875,20.789,54.787z
		 M7.457,20.235c-0.058-0.092-0.097-0.185-0.097-0.185C7.337,20.134,7.385,20.188,7.457,20.235z M18.94,48.854h-0.465
		c-0.019,0.281-0.245,0.361-0.374,0.56C18.425,49.312,18.817,49.166,18.94,48.854z M17.574,40.733
		c0.029,0.035,0.048,0.081,0.067,0.127C17.689,40.848,17.604,40.814,17.574,40.733z M20.027,54.478c0,0-0.22,0.09-0.369,0.287
		l0.324-0.006C19.983,54.656,19.993,54.561,20.027,54.478z M20.577,57.245h0.391c-0.123-0.087-0.324-0.07-0.427-0.15
		c0.007-0.004,0.015-0.012,0.022-0.015h-0.244C20.365,57.191,20.469,57.166,20.577,57.245z M19.601,47.63
		c-0.01,0.036-0.021,0.061-0.032,0.089C19.655,47.705,19.601,47.671,19.601,47.63z M13.824,39.265
		c0.285,0.012,0.626,0.01,0.838,0.085c-0.106,0.07-0.106,0.314-0.186,0.416c-0.08-0.102-0.062-0.182-0.123-0.305
		c-0.062,0.246-0.245,0.429-0.55,0.508h0.99v0.689c-0.293,0.228-0.128,0.204-0.228,0.568c0.2-0.132,0.2-0.254,0.278-0.357
		c0.08,0.104,0.202,0.104,0.31,0.205c-0.003,0.1,0.119,0.164,0.119,0.472c0,0.242-0.313,0.412-0.735,0.62
		c0.138,0.053,0.538,0.187,0.735,0.35l-0.208,0.194c-0.099-0.003-0.159-0.063-0.198-0.131c0.057,0.107,0.057,0.474,0.222,0.553
		c-0.079-0.161-0.079-0.197,0.023-0.306c0.099,0.004,0.344,0.123,0.424,0.108c-0.005,0.087,0.001,0.17,0.01,0.245h0.001
		c0.023,0.204,0.067,0.379-0.021,0.601c0.175,0.028,0.115-0.219,0.42-0.219c0.305,0,0.183,0.065,0.183,0.065
		c-0.21,0.065-0.364,0.468-0.479,0.891c0.173,0.028,0.338-0.235,0.418-0.342c0.079,0.106,0.122,0.246,0.202,0.227
		c-0.02,0.616,0.961,2.024,0.961,2.346c0,0.304,0.042,0.125-0.364,0.287l0.425,0.446c0.167-0.14,0.167-0.263,0.269-0.371v0.41
		l-0.169,0.211c-0.031-0.004-0.056,0.032-0.071,0.081h0.246c0.036-0.027,0.071-0.057,0.092-0.085l0.088,0.085l0.342,0.335
		c-0.21,0.078-0.427,0.316-0.55,0.316c-0.124,0,0.062,0.184,0.065,0.282c-0.11,0.1-0.249,0.159-0.249,0.159
		c0.307,0.049,0.349-0.218,0.44-0.321c0.654,0.259,1.5-0.131,2.089,0.609c0.043-0.181,0.024-0.259,0.125-0.367v0.902
		c-0.063,0.102-0.144,0.081-0.235,0.089c-0.099-0.22-0.092-0.433-0.118-0.609c-0.422,0.116-0.77,0.231-1.015,0.295
		c0.245,0.063,0.307,0.247,0.311,0.347c-0.111,0.099-0.188,0.083-0.288,0.087c-0.102-0.106-0.102-0.23-0.291-0.366
		c-0.039,0.18,0.083,0.056,0.083,0.362s0.385,0.104,0.491,0.175c-0.015,0.008-0.029,0.017-0.042,0.02l0.618,0.002l-0.618,0.002
		c-0.267,0.148-0.679,0.435-0.689,0.616c0.259,0.267,0.241,0.471,0.28,0.772c0.312-0.258,0.391-0.485,0.489-0.487
		c0.102,0.106,0.311,0.106,0.452-0.061c-0.141-0.164-0.264-0.164-0.367-0.242c0.103-0.08,0.244,0.182,0.244-0.123
		c0-0.308,0.162-0.188,0.162-0.188c-0.039,0.312,0.102,0.721,0.329,0.916c-0.212,0.075-0.484,0.103-0.562,0.314
		c-0.07-0.108,0.07-0.247-0.234-0.247c-0.308,0-0.29,0.139-0.369,0.306c0.167-0.079,0.182,0,0.246,0.125
		c0.061-0.125,0.043-0.204,0.121-0.309l0.391,0.362c0.039-0.179,0.021-0.258,0.123-0.366v0.42l-0.146,0.257
		c0.166-0.08,0.311-0.098,0.43,0.234c-0.002,0.004-0.006,0.004-0.008,0.005h-0.005c-0.112,0.082-0.333,0.08-0.6,0.244
		c0.14,0.173,0.019,0.416,0.184,0.496c-0.08-0.164,0-0.185,0.099-0.188c0.103,0.107,0.103,0.235,0.206,0.311
		c-0.103,0.079-0.103,0.203-0.245,0.375c0.396,0.291,0.981,0.421,0.981,0.729c0,0.249,0.081,0.213,0.111,0.356l0.279,0.006
		c0.104-0.174,0.002-0.292,0.157-0.423c0.236,0.171,0.318,0.278,0.39,0.417l0.805,0.006c-0.017-0.021-0.028-0.058-0.028-0.116
		c0-0.307,0.08-0.188,0.08-0.188c0.136,0.079,0.251,0.227,0.365,0.298h0.001c0.05,0.033,0.103,0.053,0.157,0.045
		c-0.006-0.017-0.012-0.028-0.017-0.039c-0.135-0.279-0.475-0.399-0.587-0.6c0.105-0.087,0.246-0.07,0.246-0.377
		c0-0.303-0.122-0.242-0.185-0.366c-0.061,0.124-0.243,0.063-0.41,0.08c-0.02,0.167,0,0.246-0.069,0.349
		c-0.078-0.213-0.334-0.473-0.56-0.675c0.103-0.08,0.123-0.366,0.105-0.529c-0.468-0.061-0.541-0.123-0.613-0.211h-0.003
		c-0.025-0.035-0.053-0.072-0.102-0.116c0.226-0.203,0.578-0.31,0.855-0.477c-0.138-0.18-0.138-0.215,0.002-0.383
		c0,0-0.375-0.146-0.491-0.353l0.184-0.255c-0.166,0.078-0.2,0.078-0.306,0c0.106-0.08,0.306-0.307,0.492-0.366
		c-0.331-0.093-0.508-0.151-0.755-0.327c0.037,0.123-0.085,0.159-0.165,0.262c-0.08-0.103-0.201-0.103-0.305-0.182
		c0.028-0.024,0.059-0.062,0.088-0.108h0.003c0.08-0.117,0.148-0.281,0.134-0.342c0.51,0.021,0.131,0.048,0.63-0.155
		c-0.394-0.303-0.622-0.534-0.855-0.859c0.103-0.087,0.305,0.057,0.427-0.007c-0.122-0.061-0.202-0.165-0.306-0.243
		c0.104-0.081,0.245,0.183,0.245-0.123c0-0.308-0.173-0.308-0.173-0.308c-0.175,0.14-0.175,0.509-0.278,0.616
		c-0.099-0.003-0.179-0.107-0.288-0.209c0.006-0.1,0.115-0.256,0.115-0.256c-0.438,0.005-0.601-0.092-0.601-0.151
		c0-0.318,0.182,0.048,0.347-0.281h-0.001c0.012-0.023,0.021-0.062,0.033-0.094c-0.028,0.006-0.067,0.009-0.133,0.009
		c-0.305,0-0.611-0.429-0.621-0.64c0.219-0.101,0.023,0.151,0.329,0.144h0.398c0.016-0.18,0.088-0.239,0.088-0.239
		c0.068,0.104,0.291,0.334,0.414,0.035c-0.377-0.123-1.077-0.819-1.097-0.827c0.104-0.084,0.226-0.207,0.366-0.365l-0.243-0.251
		c0.103-0.08,0.243-0.121,0.226-0.286c-0.287-0.021-0.577,0.117-0.771,0.349l-0.19-0.184c0.228-0.2,0.473-0.2,0.731-0.513
		c-0.18-0.039-0.259-0.022-0.363-0.098c0.104-0.081,0.245-0.123,0.207-0.304c-0.19,0.135-0.392,0.362-0.612,0.366
		c-0.105-0.108-0.087-0.186-0.109-0.362c-0.424,0.116-0.605,0.254-0.712,0.177c0.107-0.081-0.016-0.169-0.122-0.249
		c0.106-0.078,0.106-0.198,0.175-0.305c0.078,0.21,0.332,0.106,0.499,0.186c-0.202-0.29-0.324-0.413-0.43-0.48
		c0.212-0.08,0.369-0.195,0.369-0.503c0-0.07-0.027-0.134-0.069-0.198c-0.134-0.198-0.421-0.362-0.421-0.596
		c0-0.308-0.02-0.141,0.061-0.242c0.08,0.102,0.061,0.182,0.122,0.305c0.061-0.123,0.29-0.203,0.369-0.305
		c0.079,0.102,0.061,0.17,0.061,0.17c-0.106,0.092-0.245,0.147-0.245,0.147c0.184,0.048,0.361-0.111,0.361-0.111
		c-0.119-0.53,0.122-0.787-0.023-1.06c-0.155-0.006-0.234,0.01-0.338-0.065c0.104-0.082,0.245-0.123,0.21-0.3l-0.271,0.236
		c-0.064-0.084-0.073-0.319-0.144-0.499c-0.022,0.006-0.068,0.009-0.164,0.009c-0.306,0-0.141-0.103-0.245-0.196
		c0.116-0.207,0.366-0.477,0.348-0.644c-0.165-0.015-0.226-0.087-0.226-0.087c0.103-0.068,0.244-0.116,0.236-0.267
		c-0.268-0.146-0.48-0.336-0.484-0.557c0.108-0.104,0.247-0.164,0.247-0.164c-0.182-0.043-0.242-0.232-0.304-0.351
		c-0.061,0.118,0.062,0.182-0.245,0.182c-0.308,0-0.185-0.07-0.185-0.07c0.106-0.068,0.246,0.196,0.246-0.111
		c0-0.019-0.002-0.039-0.006-0.056h-3.163h-0.001C13.736,38.784,13.779,39.023,13.824,39.265z M20.54,52.086
		c-0.1,0.109-0.239,0.24-0.335,0.35h-0.004c-0.04,0.053-0.073,0.092-0.09,0.13c-0.012-0.048-0.024-0.09-0.039-0.13h-0.001
		c-0.063-0.187-0.143-0.358-0.143-0.604c0-0.036-0.001-0.061-0.003-0.082C20.144,51.792,20.432,51.849,20.54,52.086z M16.609,43.18
		h-0.002c0.008-0.05,0.013-0.107,0.013-0.166c0-0.307,0.141-0.043,0.316-0.184c0,0,0.035,0.141,0.175,0.314
		c-0.023,0.015-0.045,0.027-0.066,0.035c-0.246,0.163-0.429,0.334-0.484,0.447C16.508,43.527,16.579,43.387,16.609,43.18z
		 M16.436,66.465c-0.305,0-0.202-0.103-0.366-0.182c0.079,0.162,0.244,0.182-0.061,0.182s-0.123-0.059-0.151-0.239
		c-0.305,0.125-0.321,0.256-0.457,0.447c0.18,0.035,0.256,0.143,0.423,0.218c-0.08-0.162-0.183-0.183,0.123-0.183
		c0.305,0,0.194,0.096,0.194,0.096c-0.01,0.087-0.105,0.263-0.105,0.263c0.326-0.318,0.516-0.144,0.797-0.119
		c0.149-0.27,0.033-0.541,0.013-0.71C16.683,66.219,16.743,66.465,16.436,66.465z M52.319,56.423c-0.307,0-0.543,0.277-0.599,0.492
		c0.047-0.063,0.202-0.126,0.202-0.126v0.183c-0.015,0.078,0.09-0.183,0.396-0.183c0.306,0,0.639-0.129,0.807-0.272
		c-0.116,0.048-0.239,0.048-0.34,0.156C52.685,56.669,52.625,56.423,52.319,56.423z M49.726,56.657h-0.012
		c0.007,0.002,0.013,0.002,0.019,0.004C49.731,56.659,49.728,56.659,49.726,56.657z M54.09,56.092
		c-0.179-0.035-0.38,0.104-0.57-0.03c-0.036,0.177,0.085,0.426,0.122,0.604c0.19-0.14,0.393-0.12,0.515-0.179
		c-0.122-0.064-0.203-0.048-0.307-0.123L54.09,56.092z M35.602,60.166c0.105-0.088,0.098-0.302,0.098-0.302
		c-0.202,0.127-0.324,0.25-0.46,0.438c0.302,0.039,0.548,0.404,0.849,0.369C35.952,60.48,35.717,60.372,35.602,60.166z
		 M51.322,56.304c-0.332,0.321-0.381,0.242-0.472,0.302c0.121,0.061,0.183,0.187,0.49,0.187c0.305,0,0.367-0.246,0.55-0.303
		L51.322,56.304z M7.496,20.293c0.009-0.009,0.012-0.013,0.02-0.021c-0.021-0.013-0.041-0.026-0.059-0.037
		C7.469,20.255,7.481,20.275,7.496,20.293z M20.845,65.546c-0.273,0.068-0.64,0.312-0.858,0.49
		C20.261,65.969,20.626,65.726,20.845,65.546z M26.785,69.107c-0.142-0.175-0.368-0.132-0.363,0.506
		c0.137,0.138,0.119,0.219,0.137,0.386c0.165,0.017,0.104-0.167,0.104-0.167c0-0.243-0.019-0.323,0.085-0.435
		c0.098,0.004,0.162,0.075,0.162,0.075c-0.107,0.072-0.099,0.287-0.099,0.287c0.202-0.128,0.463-0.311,0.463-0.311
		c-0.304-0.048-0.521-0.159-0.733-0.237C26.643,69.144,26.785,69.107,26.785,69.107z M26.448,66.036v0.247
		c-0.012,0.079-0.276,0.241-0.239,0.421c0.191-0.135,0.296-0.248,0.573-0.438C26.601,66.219,26.522,66.114,26.448,66.036z
		 M25.709,66.598c-0.027,0.173-0.375,0.131-0.511,0.317c0.179,0.039,0.362,0.224,0.367,0.322c-0.108,0.103-0.249-0.224-0.249,0.084
		c0,0.307,0.123,0.184,0.168,0.365c0.193-0.274,0.193-0.644,0.259-0.855c0.144,0.41,0.271,0.144,0.556,0.326
		c0,0,0.138,0.183-0.089,0.414l-0.405,0.08h0.587c0.144-0.307,0.008-0.471,0.144-0.662C26.188,66.954,26.102,66.711,25.709,66.598z"
		/>
	<path fill="#F4970C" d="M89.905,50.855c-0.134-0.051-0.267-0.079-0.401-0.075c-0.34,0.003-0.645,0.075-0.911,0.216
		c-0.266,0.143-0.491,0.329-0.671,0.557c-0.184,0.226-0.32,0.474-0.416,0.735c-0.092,0.266-0.143,0.521-0.143,0.769
		c0.006,0.423,0.104,0.752,0.297,0.994c0.189,0.24,0.454,0.363,0.779,0.369c0.191,0.005,0.424-0.027,0.687-0.086
		c0.261-0.064,0.538-0.198,0.824-0.402l-0.237-0.458c-0.162,0.116-0.32,0.203-0.475,0.254c-0.154,0.054-0.289,0.075-0.402,0.072
		c-0.197-0.012-0.344-0.072-0.43-0.18c-0.09-0.102-0.141-0.225-0.161-0.365c-0.015-0.136-0.015-0.249,0-0.35
		c0.198-0.008,0.416-0.044,0.657-0.108c0.242-0.059,0.473-0.15,0.699-0.267c0.223-0.117,0.406-0.262,0.555-0.432
		c0.143-0.171,0.219-0.372,0.227-0.6c-0.005-0.165-0.053-0.302-0.145-0.408C90.148,50.984,90.037,50.903,89.905,50.855z
		 M89.408,52.014c-0.119,0.114-0.275,0.208-0.467,0.271c-0.19,0.071-0.396,0.116-0.619,0.132c0.098-0.327,0.237-0.59,0.412-0.791
		c0.177-0.209,0.361-0.312,0.555-0.319c0.225-0.005,0.328,0.104,0.318,0.322C89.596,51.774,89.531,51.902,89.408,52.014z
		 M93.227,50.776c-0.129,0.012-0.25,0.064-0.359,0.159c-0.107,0.097-0.193,0.184-0.258,0.268l-0.221,0.269l-0.018-0.015l0.119-0.597
		h-0.826l-0.645,3.474h0.824l0.326-1.715c0.076-0.37,0.183-0.629,0.322-0.785c0.142-0.155,0.287-0.227,0.436-0.221
		c0.082,0,0.148,0.007,0.193,0.022c0.049,0.016,0.094,0.032,0.133,0.043l0.445-0.652c-0.055-0.067-0.122-0.127-0.205-0.174
		C93.41,50.805,93.322,50.78,93.227,50.776z M137.766,50.86l-0.058,0.237c-0.092-0.102-0.207-0.182-0.351-0.237
		c-0.145-0.056-0.295-0.084-0.439-0.084c-0.368,0.012-0.696,0.13-0.981,0.366c-0.289,0.23-0.517,0.525-0.685,0.879
		c-0.165,0.358-0.251,0.728-0.257,1.106c0.006,0.381,0.095,0.688,0.27,0.927c0.176,0.236,0.42,0.359,0.732,0.362
		c0.176,0,0.339-0.027,0.484-0.08c0.145-0.046,0.267-0.106,0.367-0.172c0.096-0.062,0.166-0.117,0.206-0.165l0.166-0.191
		l0.013,0.013l-0.109,0.513h0.827l0.644-3.474H137.766z M137.329,52.976c-0.139,0.318-0.286,0.543-0.447,0.662
		c-0.164,0.126-0.314,0.184-0.455,0.174c-0.163,0-0.292-0.065-0.39-0.203c-0.097-0.129-0.148-0.318-0.15-0.552
		c0.007-0.406,0.072-0.732,0.198-0.988c0.123-0.255,0.267-0.437,0.435-0.557c0.162-0.114,0.309-0.171,0.437-0.171
		c0.16-0.004,0.277,0.013,0.365,0.054c0.084,0.034,0.184,0.11,0.304,0.226C137.562,52.205,137.466,52.658,137.329,52.976z
		 M78.709,49.472H77.83l-0.913,4.865h2.622l0.117-0.621h-1.737L78.709,49.472z M98.74,50.855c-0.134-0.051-0.268-0.079-0.4-0.075
		c-0.341,0.003-0.648,0.075-0.915,0.216c-0.263,0.143-0.487,0.329-0.671,0.557c-0.18,0.226-0.318,0.474-0.412,0.735
		c-0.096,0.266-0.145,0.521-0.145,0.769c0.008,0.423,0.105,0.752,0.298,0.994c0.19,0.24,0.452,0.363,0.78,0.369
		c0.191,0.005,0.42-0.027,0.682-0.086c0.266-0.064,0.543-0.198,0.824-0.402l-0.234-0.458c-0.164,0.116-0.318,0.203-0.474,0.254
		c-0.155,0.054-0.288,0.075-0.401,0.072c-0.199-0.012-0.344-0.072-0.43-0.18c-0.092-0.102-0.143-0.225-0.162-0.365
		c-0.018-0.136-0.018-0.249,0-0.35c0.197-0.008,0.416-0.044,0.654-0.108c0.242-0.059,0.476-0.15,0.697-0.267
		c0.229-0.117,0.409-0.262,0.557-0.432c0.145-0.171,0.219-0.372,0.226-0.6c-0.001-0.165-0.05-0.302-0.143-0.408
		C98.983,50.984,98.871,50.903,98.74,50.855z M98.242,52.014c-0.12,0.114-0.276,0.208-0.467,0.271
		c-0.192,0.071-0.398,0.116-0.617,0.132c0.096-0.327,0.236-0.59,0.41-0.791c0.179-0.209,0.361-0.312,0.555-0.319
		c0.225-0.005,0.33,0.104,0.319,0.322C98.432,51.774,98.363,51.902,98.242,52.014z M80.643,54.337h0.832l0.648-3.474h-0.837
		L80.643,54.337z M85.624,51.098c-0.093-0.106-0.206-0.187-0.353-0.237c-0.145-0.056-0.291-0.08-0.441-0.08
		c-0.364,0.008-0.693,0.126-0.98,0.358c-0.287,0.234-0.514,0.529-0.681,0.888c-0.167,0.354-0.255,0.719-0.259,1.102
		c0.004,0.381,0.096,0.693,0.27,0.927c0.177,0.236,0.42,0.359,0.73,0.365c0.182-0.003,0.34-0.03,0.484-0.083
		c0.146-0.046,0.268-0.106,0.369-0.172c0.1-0.062,0.165-0.117,0.203-0.162l0.167-0.194l0.017,0.015l-0.111,0.514h0.826l0.951-5.108
		h-0.834L85.624,51.098z M85.243,52.976c-0.136,0.318-0.284,0.543-0.448,0.665c-0.162,0.12-0.314,0.181-0.453,0.175
		c-0.164-0.004-0.291-0.069-0.39-0.207c-0.099-0.129-0.149-0.318-0.151-0.552c0.006-0.406,0.072-0.737,0.197-0.991
		c0.125-0.252,0.269-0.438,0.436-0.557c0.164-0.12,0.311-0.175,0.438-0.175c0.16-0.006,0.281,0.015,0.365,0.055
		c0.086,0.035,0.186,0.116,0.305,0.231C85.475,52.205,85.381,52.658,85.243,52.976z M82.635,48.985c-0.07,0-0.143,0.021-0.21,0.061
		c-0.069,0.036-0.134,0.083-0.199,0.143l-1.098,0.896l0.181,0.279l1.182-0.772c0.074-0.044,0.141-0.096,0.199-0.155
		c0.059-0.061,0.098-0.132,0.113-0.211c0.008-0.044,0-0.092-0.026-0.147C82.752,49.021,82.704,48.989,82.635,48.985z
		 M109.748,50.892c-0.15-0.078-0.301-0.119-0.449-0.119c-0.441,0.004-0.85,0.224-1.223,0.656l-0.016-0.017l0.113-0.557h-0.836
		l-0.972,5.212h0.835l0.357-1.973c0.232,0.211,0.5,0.319,0.809,0.322c0.34-0.008,0.633-0.088,0.875-0.246
		c0.242-0.156,0.443-0.355,0.594-0.602c0.154-0.243,0.271-0.498,0.343-0.76c0.069-0.268,0.109-0.51,0.105-0.729
		c-0.003-0.329-0.057-0.593-0.158-0.781C110.023,51.107,109.896,50.972,109.748,50.892z M109.272,52.89
		c-0.084,0.275-0.208,0.509-0.376,0.7c-0.167,0.195-0.375,0.297-0.627,0.307c-0.118,0-0.221-0.021-0.312-0.068
		c-0.096-0.04-0.188-0.115-0.283-0.22c0.058-0.532,0.156-0.965,0.295-1.301c0.14-0.338,0.299-0.584,0.474-0.74
		c0.177-0.158,0.345-0.239,0.509-0.239c0.145,0,0.259,0.061,0.332,0.181c0.075,0.123,0.115,0.317,0.115,0.584
		C109.398,52.347,109.354,52.614,109.272,52.89z M128.518,50.855c-0.134-0.051-0.267-0.079-0.4-0.075
		c-0.345,0.003-0.649,0.075-0.913,0.216c-0.266,0.143-0.489,0.329-0.67,0.557c-0.184,0.226-0.319,0.474-0.416,0.735
		c-0.095,0.266-0.144,0.521-0.144,0.769c0.003,0.423,0.105,0.752,0.298,0.994c0.19,0.24,0.455,0.363,0.781,0.369
		c0.19,0.005,0.419-0.027,0.683-0.086c0.263-0.064,0.539-0.198,0.823-0.402l-0.234-0.458c-0.163,0.116-0.322,0.203-0.478,0.254
		c-0.15,0.054-0.286,0.075-0.401,0.072c-0.194-0.012-0.341-0.072-0.427-0.18c-0.09-0.102-0.145-0.225-0.162-0.365
		c-0.017-0.136-0.017-0.249,0-0.35c0.198-0.008,0.417-0.044,0.656-0.108c0.239-0.059,0.474-0.15,0.699-0.267
		c0.223-0.117,0.407-0.262,0.555-0.432c0.143-0.171,0.219-0.372,0.225-0.6c-0.003-0.165-0.05-0.302-0.142-0.408
		C128.76,50.984,128.647,50.903,128.518,50.855z M128.021,52.014c-0.122,0.114-0.275,0.208-0.469,0.271
		c-0.191,0.071-0.396,0.116-0.618,0.132c0.1-0.327,0.238-0.59,0.414-0.791c0.177-0.209,0.36-0.312,0.553-0.319
		c0.225-0.005,0.33,0.104,0.319,0.322C128.209,51.774,128.142,51.902,128.021,52.014z M118.64,50.892
		c-0.151-0.078-0.301-0.119-0.449-0.119c-0.441,0.004-0.852,0.224-1.223,0.656l-0.014-0.017l0.112-0.557h-0.837l-0.97,5.212h0.833
		l0.359-1.973c0.229,0.211,0.498,0.319,0.808,0.322c0.341-0.008,0.632-0.088,0.874-0.246c0.242-0.156,0.44-0.355,0.597-0.602
		c0.154-0.243,0.267-0.498,0.339-0.76c0.072-0.268,0.108-0.51,0.106-0.729c-0.003-0.329-0.058-0.593-0.156-0.781
		C118.915,51.107,118.789,50.972,118.64,50.892z M118.162,52.89c-0.083,0.275-0.208,0.509-0.375,0.7
		c-0.166,0.195-0.377,0.297-0.625,0.307c-0.116,0-0.22-0.021-0.313-0.068c-0.095-0.04-0.19-0.115-0.285-0.22
		c0.059-0.532,0.16-0.965,0.297-1.301c0.142-0.338,0.302-0.584,0.475-0.74c0.177-0.158,0.342-0.239,0.511-0.239
		c0.144,0,0.255,0.061,0.329,0.181c0.077,0.123,0.115,0.317,0.115,0.584C118.29,52.347,118.246,52.614,118.162,52.89z
		 M131.84,50.776c-0.13,0.012-0.252,0.064-0.361,0.159c-0.106,0.097-0.192,0.184-0.257,0.268l-0.223,0.269l-0.016-0.015l0.118-0.597
		h-0.827l-0.643,3.474h0.825l0.326-1.715c0.074-0.37,0.182-0.629,0.318-0.785c0.145-0.155,0.288-0.227,0.438-0.221
		c0.082,0,0.148,0.007,0.194,0.022c0.05,0.016,0.093,0.032,0.133,0.043l0.444-0.652c-0.055-0.067-0.122-0.127-0.205-0.174
		C132.022,50.805,131.936,50.78,131.84,50.776z M122.584,50.855c-0.132-0.051-0.267-0.079-0.397-0.075
		c-0.347,0.003-0.648,0.075-0.914,0.216c-0.266,0.143-0.486,0.329-0.673,0.557c-0.179,0.226-0.319,0.474-0.412,0.735
		c-0.093,0.266-0.141,0.521-0.141,0.769c0.002,0.423,0.103,0.752,0.295,0.994c0.193,0.24,0.451,0.363,0.782,0.369
		c0.19,0.005,0.417-0.027,0.681-0.086c0.267-0.064,0.54-0.198,0.826-0.402l-0.238-0.458c-0.163,0.116-0.318,0.203-0.473,0.254
		c-0.152,0.054-0.286,0.075-0.402,0.072c-0.198-0.012-0.342-0.072-0.43-0.18c-0.09-0.102-0.144-0.225-0.162-0.365
		c-0.016-0.136-0.016-0.249,0-0.35c0.198-0.008,0.417-0.044,0.655-0.108c0.242-0.059,0.479-0.15,0.699-0.267
		c0.225-0.117,0.408-0.262,0.555-0.432c0.146-0.171,0.221-0.372,0.225-0.6c-0.003-0.165-0.051-0.302-0.141-0.408
		C122.83,50.984,122.717,50.903,122.584,50.855z M122.086,52.014c-0.118,0.114-0.274,0.208-0.465,0.271
		c-0.19,0.071-0.397,0.116-0.616,0.132c0.097-0.327,0.233-0.59,0.41-0.791c0.179-0.209,0.362-0.312,0.557-0.319
		c0.223-0.005,0.328,0.104,0.318,0.322C122.277,51.774,122.21,51.902,122.086,52.014z M102.606,50.768
		c-0.228-0.002-0.454,0.048-0.681,0.16c-0.23,0.111-0.479,0.305-0.74,0.592l-0.01-0.011l0.15-0.656h-0.822l-0.651,3.472h0.831
		l0.208-1.153c0.066-0.333,0.169-0.635,0.312-0.902c0.145-0.271,0.3-0.484,0.467-0.644c0.167-0.155,0.317-0.24,0.452-0.243
		c0.119-0.006,0.211,0.027,0.281,0.095c0.072,0.068,0.104,0.196,0.094,0.378c0,0.123-0.02,0.279-0.061,0.481l-0.406,1.988h0.83
		l0.41-1.995c0.061-0.308,0.092-0.558,0.088-0.762c0-0.286-0.064-0.487-0.192-0.613C103.041,50.828,102.851,50.768,102.606,50.768z
		 M123.698,54.337h0.834l0.951-5.108h-0.834L123.698,54.337z M134.649,48.985c-0.07,0-0.141,0.021-0.209,0.061
		c-0.066,0.036-0.134,0.083-0.2,0.143l-1.096,0.896l0.179,0.279l1.183-0.772c0.075-0.044,0.141-0.096,0.198-0.155
		c0.061-0.061,0.097-0.132,0.111-0.211c0.01-0.044,0-0.092-0.024-0.147S134.719,48.989,134.649,48.985z M113.926,51.098
		c-0.086-0.102-0.206-0.182-0.351-0.237c-0.143-0.056-0.291-0.084-0.442-0.084c-0.363,0.012-0.691,0.13-0.978,0.366
		c-0.289,0.23-0.517,0.525-0.685,0.879c-0.168,0.358-0.25,0.728-0.256,1.106c0.006,0.381,0.093,0.688,0.268,0.927
		c0.178,0.236,0.422,0.359,0.732,0.362c0.178,0,0.342-0.027,0.485-0.08c0.146-0.046,0.268-0.106,0.366-0.172
		c0.1-0.062,0.168-0.117,0.207-0.165l0.167-0.191l0.012,0.013l-0.11,0.513h0.827l0.646-3.474h-0.833L113.926,51.098z
		 M113.549,52.976c-0.138,0.318-0.288,0.543-0.448,0.662c-0.164,0.126-0.314,0.184-0.453,0.174c-0.162,0-0.294-0.065-0.391-0.203
		c-0.098-0.129-0.148-0.318-0.15-0.552c0.005-0.406,0.07-0.732,0.197-0.988c0.123-0.255,0.27-0.437,0.434-0.557
		c0.165-0.114,0.312-0.171,0.436-0.171c0.16-0.004,0.282,0.013,0.367,0.054c0.085,0.034,0.185,0.11,0.302,0.226
		C113.783,52.205,113.684,52.658,113.549,52.976z M132.654,54.337h0.837l0.646-3.474h-0.832L132.654,54.337z"/>
	<path fill="#4E2681" d="M153.055,18.722c-0.154-0.35-0.37-0.647-0.641-0.892c-0.271-0.25-0.581-0.441-0.939-0.572
		c-0.351-0.137-0.716-0.206-1.105-0.206c-0.387,0-0.756,0.069-1.112,0.206c-0.351,0.131-0.662,0.322-0.932,0.572
		c-0.268,0.244-0.484,0.542-0.646,0.892c-0.157,0.354-0.238,0.744-0.238,1.176c0,0.438,0.081,0.831,0.238,1.184
		c0.162,0.352,0.379,0.649,0.646,0.898c0.27,0.251,0.581,0.439,0.932,0.573c0.356,0.133,0.726,0.198,1.112,0.198
		c0.39,0,0.755-0.065,1.105-0.198c0.358-0.134,0.669-0.322,0.939-0.573c0.271-0.249,0.486-0.547,0.641-0.898
		c0.164-0.353,0.244-0.746,0.244-1.184C153.299,19.466,153.219,19.075,153.055,18.722z M152.348,20.798
		c-0.11,0.275-0.265,0.514-0.458,0.719c-0.195,0.196-0.423,0.351-0.689,0.463c-0.257,0.112-0.534,0.169-0.831,0.169
		c-0.298,0-0.579-0.057-0.846-0.169c-0.261-0.112-0.484-0.267-0.679-0.463c-0.194-0.205-0.346-0.443-0.459-0.719
		c-0.112-0.275-0.166-0.574-0.166-0.9c0-0.325,0.054-0.623,0.166-0.892c0.113-0.276,0.265-0.512,0.459-0.709
		c0.194-0.2,0.418-0.355,0.679-0.467c0.267-0.113,0.548-0.169,0.846-0.169c0.297,0,0.574,0.056,0.831,0.169
		c0.267,0.111,0.494,0.267,0.689,0.467c0.193,0.197,0.348,0.433,0.458,0.709c0.114,0.269,0.173,0.566,0.173,0.892
		C152.521,20.224,152.462,20.522,152.348,20.798z M145.599,22.965l-0.039-0.002l-0.038,0.002c-0.993,0.036-2.001,0.437-2.997,1.185
		c-0.896,0.674-1.727,1.492-2.468,2.436c-1.149,1.467-2.031,2.943-2.618,4.386c-0.227,0.554-0.446,1.131-0.659,1.731
		c-0.189-0.575-0.38-1.153-0.569-1.737l-0.662-2.01c-0.264-0.686-0.543-1.244-0.851-1.703c-0.56-0.834-1.285-1.027-1.798-1.045
		l-0.055-0.001l-0.055,0.005c-0.541,0.043-1.122,0.264-1.777,0.676c-0.773,0.487-1.201,1.018-1.303,1.623l-0.037,0.208l0.055,0.205
		c0.089,0.343,0.321,0.65,0.794,1.059c0.241,0.209,0.428,0.373,0.563,0.492c0.341,0.457,0.952,1.522,1.982,3.996
		c0.893,2.147,1.716,4.602,2.44,7.277c0.272,1.076,0.522,1.833,0.764,2.312c0.356,0.706,1.023,1.11,1.83,1.11l0.137-0.004
		c0.414-0.036,1.028-0.221,1.603-0.891c0.443-0.51,0.675-1.004,0.708-1.508l0.007-0.101l-0.015-0.099
		c-0.021-0.147-0.069-0.37-0.24-0.965c-0.132-0.458-0.209-0.719-0.21-0.72c-0.195-0.687-0.334-1.371-0.41-2.039
		c-0.082-0.695-0.123-1.194-0.116-1.479l0.004-0.055l-0.012-0.079c-0.006-0.094,0.008-0.546,0.4-2.492
		c0.298-1.465,1.016-3.117,2.109-4.868c0.841-1.204,1.547-2.051,2.099-2.51c0.068-0.057,0.13-0.107,0.188-0.152
		c0.121,0.228,0.275,0.452,0.454,0.663c0.257,0.312,0.747,0.691,1.6,0.726l0.117,0.004c0.373,0,0.766-0.12,1.197-0.365
		c0.421-0.235,0.937-0.744,1.008-1.887c0.003-0.806-0.243-1.548-0.729-2.208C147.626,23.634,146.906,23.018,145.599,22.965z
		 M58.812,12.43c4.119-1.317,8.233-2.014,12.244-2.071c0.944-0.026,1.818,0.076,2.595,0.308c0.565,0.169,0.9,0.521,1.067,1.071
		c0.234,1.046,0.345,1.356,0.42,1.515c0.223,0.481,0.662,0.768,1.174,0.768l0.215-0.016c0.581-0.068,1.205-0.4,1.904-1.014
		c0.752-0.654,1.176-1.403,1.26-2.227l0.012-0.111l-0.014-0.11c-0.094-0.751-0.492-1.397-1.183-1.919
		c-0.696-0.531-0.958-0.686-1.128-0.769c-1.685-0.822-3.76-1.24-6.166-1.24c-0.233,0-0.47,0.006-0.688,0.013
		c-3.954,0.034-7.879,0.621-11.666,1.744c-3.754,1.114-7.447,2.577-10.959,4.341c-1.882,0.903-3.766,1.915-5.599,3.008
		c-1.833,1.091-3.4,2.136-4.66,3.105c-1.539,1.183-2.199,1.982-2.281,2.759l-0.007,0.069l0.003,0.068
		c0.016,0.453,0.204,0.896,0.562,1.319c0.385,0.451,0.901,0.707,1.445,0.738l0.097,0.009h0.053c0.284,0,0.571-0.079,0.905-0.251
		c0.294-0.15,0.662-0.434,1.206-0.927c1.788-1.688,4.414-3.492,7.803-5.359C50.839,15.372,54.668,13.751,58.812,12.43z
		 M73.35,27.109l0.003-0.054L73.349,27c-0.065-0.926-0.608-1.648-1.531-2.031c-0.679-0.281-1.415-0.453-2.184-0.51
		c-0.58-0.045-1.052-0.069-1.404-0.069l-0.143,0.004l-0.273-0.004c-0.833,0-1.865,0.078-3.063,0.231
		c-1.078,0.139-2.483,0.412-4.191,0.815c0.249-2.876,0.499-5.046,0.746-6.463c0.282-1.623,0.515-2.711,0.693-3.239
		c0.228-0.683,0.343-1.234,0.354-1.688l0.002-0.088l-0.013-0.086c-0.097-0.622-0.601-1.041-1.286-1.041h-0.001
		c-0.348,0.01-0.828,0.105-1.511,0.297c-0.713,0.2-1.253,0.438-1.647,0.729l-0.14,0.125c-0.289,0.312-0.499,0.828-0.721,2.543
		c-0.154,1.183-0.295,2.558-0.418,4.082c-0.127,1.537-0.229,2.946-0.308,4.23c-0.053,0.808-0.092,1.442-0.119,1.902
		c-1.565,0.632-3.208,1.345-4.892,2.124c-2.407,1.107-3.042,1.455-3.31,1.62c-0.987,0.607-1.024,1.237-0.908,1.627
		c0.042,0.278,0.154,0.572,0.336,0.891c0.404,0.713,0.978,0.88,1.284,0.918l0.232,0.029l0.22-0.079
		c0.116-0.042,0.36-0.146,1.349-0.61c0.863-0.408,1.193-0.546,1.318-0.588l0.121-0.051c0.471-0.237,1.271-0.609,2.377-1.104
		c0.589-0.266,1.162-0.511,1.716-0.732c-0.055,2.059-0.049,4.177,0.019,6.315c0.087,2.743,0.492,5.109,1.205,7.035
		c1.03,2.783,2.971,3.449,4.43,3.519l0.12,0.002c0.427,0,0.946-0.073,1.584-0.222c1.367-0.32,1.697-1.233,1.781-1.823
		c0.05-0.729-0.375-1.304-1.089-1.463c-0.275-0.062-0.674-0.088-1.293-0.088l-0.255,0.001c-0.28-0.026-0.914-0.146-1.38-1.625
		c-0.435-1.374-0.703-2.935-0.797-4.639c-0.099-1.773-0.14-3.21-0.12-4.282c0.01-1.602,0.044-3.01,0.101-4.196
		c1.097-0.291,2.257-0.563,3.458-0.807c1.402-0.288,2.771-0.441,4.051-0.46c0.408,0.003,0.646,0.026,0.773,0.047
		c0.216,0.851,0.918,1.383,1.926,1.441l0.04,0.001h0.039c0.654-0.015,1.253-0.228,1.778-0.632
		C72.992,28.455,73.319,27.833,73.35,27.109z M132.323,37.037l-0.128-0.019l-0.127,0.013c-0.413,0.044-0.844,0.235-1.312,0.577
		c-0.362,0.26-0.663,0.495-0.91,0.711c-0.722,0.61-1.62,1.26-2.669,1.93c-0.952,0.607-1.902,0.947-2.827,1.01
		c-0.826-0.062-1.321-0.409-1.606-1.125c-0.324-0.814-0.479-1.703-0.464-2.646c2.121-1.49,3.825-3.247,5.068-5.225
		c1.353-2.146,2.051-4.146,2.072-5.99c-0.048-1.324-0.472-2.261-1.257-2.785c-0.632-0.42-1.287-0.633-1.95-0.633l-0.148,0.003
		c-1.937,0.093-3.545,1.056-4.778,2.863c-1.111,1.633-1.949,3.575-2.487,5.772c-0.527,2.157-0.794,4.161-0.793,5.93
		c-0.021,0.911,0.097,1.938,0.352,3.047c0.091,0.399,0.227,0.776,0.382,1.145c-0.214-0.055-0.455-0.081-0.749-0.062
		c-0.274-0.07-0.479-0.54-0.58-0.827c-0.315-0.886-0.588-1.925-0.813-3.115c-0.264-1.21-0.534-2.973-0.804-5.236
		c-0.271-2.292-0.421-5.419-0.441-9.286c0.002-2.026,0.047-3.622,0.13-4.742c0.081-1.097,0.178-2.094,0.281-2.942l0.439-3.007
		l-0.011-0.118c-0.057-0.608-0.455-1.078-1.061-1.257c-0.288-0.087-0.575-0.131-0.853-0.131c-0.593-0.059-1.278,0.16-2.112,0.706
		c-0.492,0.273-0.828,0.713-0.949,1.257c-0.047,0.224-0.109,0.653-0.092,1.777c0.019,3.165,0.094,6.407,0.223,9.658
		c-0.018-0.001-0.033-0.001-0.051-0.002c-1.443,0.053-2.938,0.736-4.569,2.09c-1.491,1.238-2.94,2.823-4.308,4.704
		c-1.348,1.859-2.479,3.802-3.357,5.775c-0.861,1.941-1.32,3.703-1.387,5.274c-0.154-0.142-0.35-0.267-0.606-0.356l-0.206-0.056
		h-0.168c-0.37,0-0.688-0.126-0.996-0.398c-0.312-0.4-0.734-1.278-1.041-3.204c-0.278-1.755-0.461-3.599-0.545-5.48
		c-0.09-1.98-0.13-3.458-0.121-4.529c-0.005-1.237,0.039-2.748,0.132-4.495c0.085-1.753,0.251-3.388,0.483-4.829
		c0.055-0.278,0.156-0.771,0.309-1.478c0.16-0.767,0.25-1.317,0.273-1.681l0.004-0.074l-0.006-0.073
		c-0.078-0.933-0.713-1.534-1.635-1.534c-0.431,0.007-0.928,0.116-1.518,0.328c-0.646,0.229-1.141,0.544-1.473,0.935l-0.107,0.154
		c-0.263,0.468-0.424,1.247-0.521,2.532c-0.078,1.067-0.127,2.172-0.147,3.288c-0.018,1.085-0.023,1.759-0.018,1.986
		c-0.013,1.847,0.026,4.018,0.112,6.451c0.086,2.409,0.285,4.931,0.598,7.503c0.314,2.409,0.791,4.21,1.459,5.503
		c0.778,1.519,2.023,2.325,3.602,2.334h0.04l0.04-0.003c1.458-0.111,2.072-0.688,2.32-1.263c0.385,0.851,1.154,1.371,2.252,1.457
		l0.061,0.005l0.061-0.004c1.262-0.057,2.734-0.788,4.5-2.236c1.637-1.347,3.27-3.037,4.852-5.03
		c0.872-1.097,1.659-2.216,2.354-3.348c0.015,0.133,0.031,0.267,0.047,0.403c0.19,1.641,0.498,3.374,0.915,5.142
		c0.213,0.945,0.562,1.936,1.042,2.941c0.606,1.278,1.624,2.012,2.938,2.126l0.073,0.007l0.072-0.006
		c0.732-0.044,1.37-0.314,1.843-0.78c0.274-0.27,0.617-0.677,0.727-1.19c0.119,0.148,0.232,0.301,0.365,0.44
		c0.905,0.956,2.228,1.466,3.924,1.514l0.187,0.003c1.005,0,2.122-0.273,3.321-0.812c1.251-0.556,2.704-1.57,4.418-3.085
		c1.126-0.939,1.685-1.757,1.76-2.57l0.008-0.082l-0.006-0.08C133.594,37.718,133.084,37.155,132.323,37.037z M122.736,30.922
		c0.366-1.146,0.783-2.339,1.359-3.325c0.289-0.494,0.937-0.911,1.414-0.911c0.138,0,0.252,0.034,0.354,0.107
		c0.404,0.286-0.262,1.669-0.512,2.188l-0.059,0.123c-0.369,0.767-1.095,1.873-1.988,3.031c-0.238,0.309-0.532,0.53-0.866,0.73
		C122.479,32.197,122.544,31.525,122.736,30.922z M109.488,31.442c-0.818,1.414-1.84,2.897-3.037,4.411
		c-1.186,1.503-2.335,2.786-3.416,3.813c-0.547,0.522-0.957,0.85-1.257,1.057c0.108-0.442,0.317-1.112,0.722-2.117
		c0.561-1.395,1.301-2.838,2.183-4.266c1.05-1.596,2.226-3.031,3.495-4.266c1.366-1.326,2.129-1.671,2.477-1.755
		c0.029,0.064,0.041,0.099,0.046,0.099c0,0,0.001,0,0.001-0.001C110.674,28.9,110.439,29.814,109.488,31.442z M81.938,24.587
		l-0.057-0.001l-0.057,0.007c-0.653,0.064-1.158,0.16-1.553,0.299c-0.295-0.154-0.649-0.253-1.061-0.299l-0.077-0.008l-0.076,0.003
		c-1.836,0.085-3.491,1.187-4.919,3.273c-1.35,1.976-2.074,4.456-2.155,7.402c0.002,2.511,0.619,4.733,1.833,6.607
		c1.295,1.994,3.226,3.057,5.739,3.156l0.034,0.001l0.033-0.001c2.091-0.057,3.9-0.732,5.376-2.005
		c1.42-1.219,2.518-2.719,3.266-4.458c0.744-1.729,1.121-3.428,1.127-5.088c-0.09-2.718-0.9-4.892-2.406-6.458
		C85.468,25.434,83.77,24.614,81.938,24.587z M77.92,28.038v0.979c-0.001-0.001-0.003-0.001-0.004-0.002L77.92,28.038z
		 M83.504,39.189c-1.02,1.152-2.053,1.726-3.141,1.754c-0.973,0-1.873-0.498-2.749-1.523c-0.918-1.071-1.414-2.787-1.475-5.039
		c0.054-1.755,0.358-3.144,0.907-4.13c0.443-0.798,0.746-1.089,0.88-1.189c0.069,0.057,0.151,0.128,0.246,0.213
		c0.226,0.26,0.551,0.43,0.967,0.504l0.112,0.021l0.113-0.006c0.396-0.021,0.979-0.177,1.498-0.8
		c0.174-0.207,0.317-0.436,0.434-0.686c1.033,0.069,1.837,0.548,2.513,1.494c0.879,1.227,1.336,2.81,1.359,4.655
		C85.099,36.456,84.555,38.005,83.504,39.189z M151.179,20.026c0.103-0.034,0.191-0.087,0.27-0.151
		c0.076-0.066,0.134-0.149,0.175-0.253c0.046-0.106,0.068-0.232,0.068-0.381c0-0.345-0.109-0.59-0.327-0.732
		c-0.215-0.141-0.524-0.212-0.924-0.212h-1.207v3.195h0.633v-1.368h0.398l0.777,1.368h0.663l-0.854-1.397
		C150.967,20.085,151.076,20.062,151.179,20.026z M149.866,19.631v-0.839h0.534c0.072,0,0.143,0.006,0.225,0.017
		c0.078,0.008,0.15,0.028,0.21,0.06c0.068,0.024,0.119,0.064,0.159,0.115c0.044,0.049,0.062,0.117,0.062,0.204
		c0,0.196-0.06,0.316-0.174,0.368c-0.12,0.047-0.265,0.075-0.448,0.075H149.866z"/>
</g>
</svg>
